<svg width="320" height="187" viewBox="0 0 320 187" fill="none" xmlns="http://www.w3.org/2000/svg">
<path d="M49.5667 89V71.72H56.5507C56.7187 71.72 56.9267 71.728 57.1747 71.744C57.4227 71.752 57.6587 71.776 57.8827 71.816C58.8427 71.968 59.6427 72.296 60.2827 72.8C60.9307 73.304 61.4147 73.94 61.7347 74.708C62.0547 75.476 62.2147 76.324 62.2147 77.252C62.2147 78.188 62.0547 79.04 61.7347 79.808C61.4147 80.576 60.9307 81.212 60.2827 81.716C59.6427 82.22 58.8427 82.548 57.8827 82.7C57.6587 82.732 57.4187 82.756 57.1627 82.772C56.9147 82.788 56.7107 82.796 56.5507 82.796H52.0747V89H49.5667ZM52.0747 80.42H56.4547C56.6147 80.42 56.7907 80.412 56.9827 80.396C57.1827 80.38 57.3707 80.352 57.5467 80.312C58.0587 80.192 58.4707 79.972 58.7827 79.652C59.0947 79.324 59.3187 78.948 59.4547 78.524C59.5907 78.1 59.6587 77.676 59.6587 77.252C59.6587 76.828 59.5907 76.408 59.4547 75.992C59.3187 75.568 59.0947 75.196 58.7827 74.876C58.4707 74.548 58.0587 74.324 57.5467 74.204C57.3707 74.156 57.1827 74.124 56.9827 74.108C56.7907 74.092 56.6147 74.084 56.4547 74.084H52.0747V80.42ZM64.6136 89V76.04H66.8456V79.184L66.5336 78.776C66.6936 78.36 66.9016 77.98 67.1576 77.636C67.4136 77.284 67.7096 76.996 68.0456 76.772C68.3736 76.532 68.7376 76.348 69.1376 76.22C69.5456 76.084 69.9616 76.004 70.3856 75.98C70.8096 75.948 71.2176 75.968 71.6096 76.04V78.392C71.1856 78.28 70.7136 78.248 70.1936 78.296C69.6816 78.344 69.2096 78.508 68.7776 78.788C68.3696 79.052 68.0456 79.372 67.8056 79.748C67.5736 80.124 67.4056 80.544 67.3016 81.008C67.1976 81.464 67.1456 81.948 67.1456 82.46V89H64.6136ZM79.2885 89.36C77.9925 89.36 76.8685 89.068 75.9165 88.484C74.9645 87.9 74.2285 87.096 73.7085 86.072C73.1965 85.04 72.9405 83.852 72.9405 82.508C72.9405 81.156 73.2045 79.968 73.7325 78.944C74.2605 77.912 75.0005 77.112 75.9525 76.544C76.9045 75.968 78.0165 75.68 79.2885 75.68C80.5845 75.68 81.7085 75.972 82.6605 76.556C83.6125 77.14 84.3485 77.944 84.8685 78.968C85.3885 79.992 85.6485 81.172 85.6485 82.508C85.6485 83.86 85.3845 85.052 84.8565 86.084C84.3365 87.108 83.6005 87.912 82.6485 88.496C81.6965 89.072 80.5765 89.36 79.2885 89.36ZM79.2885 86.996C80.5285 86.996 81.4525 86.58 82.0605 85.748C82.6765 84.908 82.9845 83.828 82.9845 82.508C82.9845 81.156 82.6725 80.076 82.0485 79.268C81.4325 78.452 80.5125 78.044 79.2885 78.044C78.4485 78.044 77.7565 78.236 77.2125 78.62C76.6685 78.996 76.2645 79.52 76.0005 80.192C75.7365 80.856 75.6045 81.628 75.6045 82.508C75.6045 83.868 75.9165 84.956 76.5405 85.772C77.1645 86.588 78.0805 86.996 79.2885 86.996ZM89.5687 94.76L92.0767 87.932L92.1127 89.948L86.4607 76.04H89.0767L93.3007 86.78H92.5327L96.5647 76.04H99.1087L91.9567 94.76H89.5687ZM106.268 89.36C104.98 89.36 103.848 89.08 102.872 88.52C101.904 87.952 101.148 87.164 100.604 86.156C100.068 85.14 99.7998 83.964 99.7998 82.628C99.7998 81.212 100.064 79.984 100.592 78.944C101.128 77.904 101.872 77.1 102.824 76.532C103.776 75.964 104.884 75.68 106.148 75.68C107.468 75.68 108.592 75.988 109.52 76.604C110.448 77.212 111.14 78.08 111.596 79.208C112.06 80.336 112.244 81.676 112.148 83.228H109.64V82.316C109.624 80.812 109.336 79.7 108.776 78.98C108.224 78.26 107.38 77.9 106.244 77.9C104.988 77.9 104.044 78.296 103.412 79.088C102.78 79.88 102.464 81.024 102.464 82.52C102.464 83.944 102.78 85.048 103.412 85.832C104.044 86.608 104.956 86.996 106.148 86.996C106.932 86.996 107.608 86.82 108.176 86.468C108.752 86.108 109.2 85.596 109.52 84.932L111.98 85.712C111.476 86.872 110.712 87.772 109.688 88.412C108.664 89.044 107.524 89.36 106.268 89.36ZM101.648 83.228V81.272H110.9V83.228H101.648ZM120.384 89.36C119.056 89.36 117.928 89.064 117 88.472C116.072 87.88 115.36 87.068 114.864 86.036C114.376 85.004 114.128 83.832 114.12 82.52C114.128 81.184 114.384 80.004 114.888 78.98C115.392 77.948 116.112 77.14 117.048 76.556C117.984 75.972 119.108 75.68 120.42 75.68C121.836 75.68 123.044 76.032 124.044 76.736C125.052 77.44 125.716 78.404 126.036 79.628L123.54 80.348C123.292 79.62 122.884 79.056 122.316 78.656C121.756 78.248 121.112 78.044 120.384 78.044C119.56 78.044 118.884 78.24 118.356 78.632C117.828 79.016 117.436 79.544 117.18 80.216C116.924 80.888 116.792 81.656 116.784 82.52C116.792 83.856 117.096 84.936 117.696 85.76C118.304 86.584 119.2 86.996 120.384 86.996C121.192 86.996 121.844 86.812 122.34 86.444C122.844 86.068 123.228 85.532 123.492 84.836L126.036 85.436C125.612 86.7 124.912 87.672 123.936 88.352C122.96 89.024 121.776 89.36 120.384 89.36ZM135.897 89C135.081 89.16 134.281 89.228 133.497 89.204C132.713 89.18 132.013 89.028 131.397 88.748C130.781 88.468 130.317 88.028 130.005 87.428C129.725 86.892 129.573 86.348 129.549 85.796C129.533 85.236 129.525 84.604 129.525 83.9V72.44H132.045V83.78C132.045 84.3 132.049 84.752 132.057 85.136C132.073 85.52 132.157 85.844 132.309 86.108C132.597 86.604 133.053 86.888 133.677 86.96C134.309 87.024 135.049 86.996 135.897 86.876V89ZM127.041 78.056V76.04H135.897V78.056H127.041ZM143.671 89.36C142.375 89.36 141.251 89.068 140.299 88.484C139.347 87.9 138.611 87.096 138.091 86.072C137.579 85.04 137.323 83.852 137.323 82.508C137.323 81.156 137.587 79.968 138.115 78.944C138.643 77.912 139.383 77.112 140.335 76.544C141.287 75.968 142.399 75.68 143.671 75.68C144.967 75.68 146.091 75.972 147.043 76.556C147.995 77.14 148.731 77.944 149.251 78.968C149.771 79.992 150.031 81.172 150.031 82.508C150.031 83.86 149.767 85.052 149.239 86.084C148.719 87.108 147.983 87.912 147.031 88.496C146.079 89.072 144.959 89.36 143.671 89.36ZM143.671 86.996C144.911 86.996 145.835 86.58 146.443 85.748C147.059 84.908 147.367 83.828 147.367 82.508C147.367 81.156 147.055 80.076 146.431 79.268C145.815 78.452 144.895 78.044 143.671 78.044C142.831 78.044 142.139 78.236 141.595 78.62C141.051 78.996 140.647 79.52 140.383 80.192C140.119 80.856 139.987 81.628 139.987 82.508C139.987 83.868 140.299 84.956 140.923 85.772C141.547 86.588 142.463 86.996 143.671 86.996ZM157.39 89.348C155.814 89.348 154.53 89 153.538 88.304C152.546 87.608 151.938 86.628 151.714 85.364L154.282 84.968C154.442 85.64 154.81 86.172 155.386 86.564C155.97 86.948 156.694 87.14 157.558 87.14C158.342 87.14 158.954 86.98 159.394 86.66C159.842 86.34 160.066 85.9 160.066 85.34C160.066 85.012 159.986 84.748 159.826 84.548C159.674 84.34 159.35 84.144 158.854 83.96C158.358 83.776 157.602 83.548 156.586 83.276C155.474 82.988 154.59 82.68 153.934 82.352C153.286 82.016 152.822 81.628 152.542 81.188C152.27 80.74 152.134 80.2 152.134 79.568C152.134 78.784 152.342 78.1 152.758 77.516C153.174 76.932 153.758 76.48 154.51 76.16C155.27 75.84 156.158 75.68 157.174 75.68C158.166 75.68 159.05 75.836 159.826 76.148C160.602 76.46 161.23 76.904 161.71 77.48C162.19 78.048 162.478 78.716 162.574 79.484L160.006 79.952C159.918 79.328 159.626 78.836 159.13 78.476C158.634 78.116 157.99 77.92 157.198 77.888C156.438 77.856 155.822 77.984 155.35 78.272C154.878 78.552 154.642 78.94 154.642 79.436C154.642 79.724 154.73 79.968 154.906 80.168C155.09 80.368 155.442 80.56 155.962 80.744C156.482 80.928 157.25 81.148 158.266 81.404C159.354 81.684 160.218 81.996 160.858 82.34C161.498 82.676 161.954 83.08 162.226 83.552C162.506 84.016 162.646 84.58 162.646 85.244C162.646 86.524 162.178 87.528 161.242 88.256C160.314 88.984 159.03 89.348 157.39 89.348ZM170.106 89V76.04H172.338V79.184L172.026 78.776C172.186 78.36 172.394 77.98 172.65 77.636C172.906 77.284 173.202 76.996 173.538 76.772C173.866 76.532 174.23 76.348 174.63 76.22C175.038 76.084 175.454 76.004 175.878 75.98C176.302 75.948 176.71 75.968 177.102 76.04V78.392C176.678 78.28 176.206 78.248 175.686 78.296C175.174 78.344 174.702 78.508 174.27 78.788C173.862 79.052 173.538 79.372 173.298 79.748C173.066 80.124 172.898 80.544 172.794 81.008C172.69 81.464 172.638 81.948 172.638 82.46V89H170.106ZM184.901 89.36C183.613 89.36 182.481 89.08 181.505 88.52C180.537 87.952 179.781 87.164 179.237 86.156C178.701 85.14 178.433 83.964 178.433 82.628C178.433 81.212 178.697 79.984 179.225 78.944C179.761 77.904 180.505 77.1 181.457 76.532C182.409 75.964 183.517 75.68 184.781 75.68C186.101 75.68 187.225 75.988 188.153 76.604C189.081 77.212 189.773 78.08 190.229 79.208C190.693 80.336 190.877 81.676 190.781 83.228H188.273V82.316C188.257 80.812 187.969 79.7 187.409 78.98C186.857 78.26 186.013 77.9 184.877 77.9C183.621 77.9 182.677 78.296 182.045 79.088C181.413 79.88 181.097 81.024 181.097 82.52C181.097 83.944 181.413 85.048 182.045 85.832C182.677 86.608 183.589 86.996 184.781 86.996C185.565 86.996 186.241 86.82 186.809 86.468C187.385 86.108 187.833 85.596 188.153 84.932L190.613 85.712C190.109 86.872 189.345 87.772 188.321 88.412C187.297 89.044 186.157 89.36 184.901 89.36ZM180.281 83.228V81.272H189.533V83.228H180.281ZM199.017 89.36C197.689 89.36 196.561 89.064 195.633 88.472C194.705 87.88 193.993 87.068 193.497 86.036C193.009 85.004 192.761 83.832 192.753 82.52C192.761 81.184 193.017 80.004 193.521 78.98C194.025 77.948 194.745 77.14 195.681 76.556C196.617 75.972 197.741 75.68 199.053 75.68C200.469 75.68 201.677 76.032 202.677 76.736C203.685 77.44 204.349 78.404 204.669 79.628L202.173 80.348C201.925 79.62 201.517 79.056 200.949 78.656C200.389 78.248 199.745 78.044 199.017 78.044C198.193 78.044 197.517 78.24 196.989 78.632C196.461 79.016 196.069 79.544 195.813 80.216C195.557 80.888 195.425 81.656 195.417 82.52C195.425 83.856 195.729 84.936 196.329 85.76C196.937 86.584 197.833 86.996 199.017 86.996C199.825 86.996 200.477 86.812 200.973 86.444C201.477 86.068 201.861 85.532 202.125 84.836L204.669 85.436C204.245 86.7 203.545 87.672 202.569 88.352C201.593 89.024 200.409 89.36 199.017 89.36ZM207.002 73.916V71.48H209.51V73.916H207.002ZM207.002 89V76.04H209.51V89H207.002ZM218.862 89.36C217.574 89.36 216.442 89.08 215.466 88.52C214.498 87.952 213.742 87.164 213.198 86.156C212.662 85.14 212.394 83.964 212.394 82.628C212.394 81.212 212.658 79.984 213.186 78.944C213.722 77.904 214.466 77.1 215.418 76.532C216.37 75.964 217.478 75.68 218.742 75.68C220.062 75.68 221.186 75.988 222.114 76.604C223.042 77.212 223.734 78.08 224.19 79.208C224.654 80.336 224.838 81.676 224.742 83.228H222.234V82.316C222.218 80.812 221.93 79.7 221.37 78.98C220.818 78.26 219.974 77.9 218.838 77.9C217.582 77.9 216.638 78.296 216.006 79.088C215.374 79.88 215.058 81.024 215.058 82.52C215.058 83.944 215.374 85.048 216.006 85.832C216.638 86.608 217.55 86.996 218.742 86.996C219.526 86.996 220.202 86.82 220.77 86.468C221.346 86.108 221.794 85.596 222.114 84.932L224.574 85.712C224.07 86.872 223.306 87.772 222.282 88.412C221.258 89.044 220.118 89.36 218.862 89.36ZM214.242 83.228V81.272H223.494V83.228H214.242ZM236.178 89V82.628C236.178 82.124 236.134 81.608 236.046 81.08C235.966 80.544 235.806 80.048 235.566 79.592C235.334 79.136 235.002 78.768 234.57 78.488C234.146 78.208 233.59 78.068 232.902 78.068C232.454 78.068 232.03 78.144 231.63 78.296C231.23 78.44 230.878 78.676 230.574 79.004C230.278 79.332 230.042 79.764 229.866 80.3C229.698 80.836 229.614 81.488 229.614 82.256L228.054 81.668C228.054 80.492 228.274 79.456 228.714 78.56C229.154 77.656 229.786 76.952 230.61 76.448C231.434 75.944 232.43 75.692 233.598 75.692C234.494 75.692 235.246 75.836 235.854 76.124C236.462 76.412 236.954 76.792 237.33 77.264C237.714 77.728 238.006 78.236 238.206 78.788C238.406 79.34 238.542 79.88 238.614 80.408C238.686 80.936 238.722 81.4 238.722 81.8V89H236.178ZM227.07 89V76.04H229.314V79.784H229.614V89H227.07ZM249.264 89C248.448 89.16 247.648 89.228 246.864 89.204C246.08 89.18 245.38 89.028 244.764 88.748C244.148 88.468 243.684 88.028 243.372 87.428C243.092 86.892 242.94 86.348 242.916 85.796C242.9 85.236 242.892 84.604 242.892 83.9V72.44H245.412V83.78C245.412 84.3 245.416 84.752 245.424 85.136C245.44 85.52 245.524 85.844 245.676 86.108C245.964 86.604 246.42 86.888 247.044 86.96C247.676 87.024 248.416 86.996 249.264 86.876V89ZM240.408 78.056V76.04H249.264V78.056H240.408ZM257.158 89.36C255.87 89.36 254.738 89.08 253.762 88.52C252.794 87.952 252.038 87.164 251.494 86.156C250.958 85.14 250.69 83.964 250.69 82.628C250.69 81.212 250.954 79.984 251.482 78.944C252.018 77.904 252.762 77.1 253.714 76.532C254.666 75.964 255.774 75.68 257.038 75.68C258.358 75.68 259.482 75.988 260.41 76.604C261.338 77.212 262.03 78.08 262.486 79.208C262.95 80.336 263.134 81.676 263.038 83.228H260.53V82.316C260.514 80.812 260.226 79.7 259.666 78.98C259.114 78.26 258.27 77.9 257.134 77.9C255.878 77.9 254.934 78.296 254.302 79.088C253.67 79.88 253.354 81.024 253.354 82.52C253.354 83.944 253.67 85.048 254.302 85.832C254.934 86.608 255.846 86.996 257.038 86.996C257.822 86.996 258.498 86.82 259.066 86.468C259.642 86.108 260.09 85.596 260.41 84.932L262.87 85.712C262.366 86.872 261.602 87.772 260.578 88.412C259.554 89.044 258.414 89.36 257.158 89.36ZM252.538 83.228V81.272H261.79V83.228H252.538ZM270.687 89.348C269.111 89.348 267.827 89 266.835 88.304C265.843 87.608 265.235 86.628 265.011 85.364L267.579 84.968C267.739 85.64 268.107 86.172 268.683 86.564C269.267 86.948 269.991 87.14 270.855 87.14C271.639 87.14 272.251 86.98 272.691 86.66C273.139 86.34 273.363 85.9 273.363 85.34C273.363 85.012 273.283 84.748 273.123 84.548C272.971 84.34 272.647 84.144 272.151 83.96C271.655 83.776 270.899 83.548 269.883 83.276C268.771 82.988 267.887 82.68 267.231 82.352C266.583 82.016 266.119 81.628 265.839 81.188C265.567 80.74 265.431 80.2 265.431 79.568C265.431 78.784 265.639 78.1 266.055 77.516C266.471 76.932 267.055 76.48 267.807 76.16C268.567 75.84 269.455 75.68 270.471 75.68C271.463 75.68 272.347 75.836 273.123 76.148C273.899 76.46 274.527 76.904 275.007 77.48C275.487 78.048 275.775 78.716 275.871 79.484L273.303 79.952C273.215 79.328 272.923 78.836 272.427 78.476C271.931 78.116 271.287 77.92 270.495 77.888C269.735 77.856 269.119 77.984 268.647 78.272C268.175 78.552 267.939 78.94 267.939 79.436C267.939 79.724 268.027 79.968 268.203 80.168C268.387 80.368 268.739 80.56 269.259 80.744C269.779 80.928 270.547 81.148 271.563 81.404C272.651 81.684 273.515 81.996 274.155 82.34C274.795 82.676 275.251 83.08 275.523 83.552C275.803 84.016 275.943 84.58 275.943 85.244C275.943 86.524 275.475 87.528 274.539 88.256C273.611 88.984 272.327 89.348 270.687 89.348Z" fill="white"/>
<path d="M16 119.5L141.5 119.5" stroke="#3CBAE3" stroke-width="2"/>
<path d="M153.436 115.418L162.877 120.155L164.526 119.328C165.802 118.687 166.564 117.45 166.564 116.018C166.564 114.586 165.802 113.349 164.526 112.709L153.436 107.144V115.418ZM162.877 122.328L155.474 126.042C154.217 126.673 153.436 127.941 153.436 129.352C153.436 130.644 154.09 131.82 155.185 132.499C156.28 133.179 157.621 133.24 158.772 132.661L164.526 129.774C165.802 129.133 166.564 127.897 166.564 126.465C166.564 125.033 165.802 123.795 164.526 123.155L162.877 122.328ZM157.12 135C156.095 135 155.076 134.716 154.167 134.152C152.497 133.116 151.5 131.322 151.5 129.352C151.5 127.201 152.691 125.267 154.608 124.305L160.712 121.241L151.5 116.618V104L165.392 110.971C167.309 111.933 168.5 113.867 168.5 116.018C168.5 118.17 167.309 120.104 165.392 121.066L165.042 121.241L165.392 121.417C167.309 122.379 168.5 124.313 168.5 126.465C168.5 128.616 167.309 130.55 165.392 131.512L159.638 134.399C158.837 134.801 157.977 135 157.12 135Z" fill="#3CBAE3"/>
<path d="M178.5 119.5L304 119.5" stroke="#3CBAE3" stroke-width="2"/>
<path d="M39.1359 159.21C38.4219 159.21 37.7779 159.089 37.2039 158.846C36.6346 158.603 36.1632 158.258 35.7899 157.81C35.4212 157.357 35.1809 156.823 35.0689 156.207L36.3569 156.004C36.5202 156.639 36.8586 157.136 37.3719 157.495C37.8899 157.85 38.4989 158.027 39.1989 158.027C39.6516 158.027 40.0599 157.957 40.4239 157.817C40.7926 157.672 41.0842 157.467 41.2989 157.201C41.5136 156.935 41.6209 156.62 41.6209 156.256C41.6209 156.032 41.5812 155.841 41.5019 155.682C41.4272 155.519 41.3222 155.381 41.1869 155.269C41.0562 155.152 40.9069 155.054 40.7389 154.975C40.5709 154.896 40.3959 154.83 40.2139 154.779L37.6449 154.016C37.3649 153.932 37.0942 153.827 36.8329 153.701C36.5716 153.57 36.3382 153.409 36.1329 153.218C35.9276 153.022 35.7642 152.789 35.6429 152.518C35.5216 152.243 35.4609 151.918 35.4609 151.545C35.4609 150.948 35.6149 150.439 35.9229 150.019C36.2356 149.594 36.6579 149.27 37.1899 149.046C37.7219 148.822 38.3216 148.712 38.9889 148.717C39.6656 148.722 40.2699 148.843 40.8019 149.081C41.3386 149.314 41.7819 149.65 42.1319 150.089C42.4866 150.528 42.7246 151.053 42.8459 151.664L41.5229 151.895C41.4529 151.484 41.2966 151.132 41.0539 150.838C40.8159 150.539 40.5172 150.311 40.1579 150.152C39.7986 149.989 39.4042 149.905 38.9749 149.9C38.5642 149.895 38.1932 149.961 37.8619 150.096C37.5306 150.231 37.2669 150.42 37.0709 150.663C36.8749 150.901 36.7769 151.176 36.7769 151.489C36.7769 151.797 36.8656 152.047 37.0429 152.238C37.2202 152.425 37.4372 152.574 37.6939 152.686C37.9552 152.793 38.2096 152.882 38.4569 152.952L40.3749 153.505C40.5942 153.566 40.8462 153.65 41.1309 153.757C41.4202 153.864 41.7002 154.016 41.9709 154.212C42.2416 154.403 42.4656 154.66 42.6429 154.982C42.8202 155.299 42.9089 155.701 42.9089 156.186C42.9089 156.671 42.8109 157.103 42.6149 157.481C42.4236 157.859 42.1552 158.176 41.8099 158.433C41.4646 158.685 41.0632 158.876 40.6059 159.007C40.1486 159.142 39.6586 159.21 39.1359 159.21ZM47.6973 159.21C46.9459 159.21 46.2973 159.04 45.7513 158.699C45.2099 158.358 44.7923 157.887 44.4983 157.285C44.2043 156.683 44.0573 155.992 44.0573 155.213C44.0573 154.42 44.2066 153.724 44.5053 153.127C44.8039 152.53 45.2263 152.065 45.7723 151.734C46.3183 151.398 46.9599 151.23 47.6973 151.23C48.4533 151.23 49.1043 151.4 49.6503 151.741C50.1963 152.077 50.6139 152.546 50.9033 153.148C51.1973 153.745 51.3443 154.434 51.3443 155.213C51.3443 156.002 51.1973 156.697 50.9033 157.299C50.6093 157.896 50.1893 158.365 49.6433 158.706C49.0973 159.042 48.4486 159.21 47.6973 159.21ZM47.6973 158.027C48.4813 158.027 49.0646 157.766 49.4473 157.243C49.8299 156.72 50.0213 156.044 50.0213 155.213C50.0213 154.359 49.8276 153.68 49.4403 153.176C49.0529 152.667 48.4719 152.413 47.6973 152.413C47.1699 152.413 46.7359 152.532 46.3953 152.77C46.0546 153.008 45.8003 153.337 45.6323 153.757C45.4643 154.177 45.3803 154.662 45.3803 155.213C45.3803 156.062 45.5763 156.744 45.9683 157.257C46.3603 157.77 46.9366 158.027 47.6973 158.027ZM53.1255 159V148.71H54.3715V159H53.1255ZM59.4418 159.196C58.9565 159.196 58.5388 159.119 58.1888 158.965C57.8435 158.811 57.5565 158.606 57.3278 158.349C57.0991 158.092 56.9195 157.808 56.7888 157.495C56.6581 157.182 56.5648 156.863 56.5088 156.536C56.4575 156.209 56.4318 155.904 56.4318 155.619V151.44H57.6918V155.227C57.6918 155.582 57.7245 155.925 57.7898 156.256C57.8551 156.587 57.9648 156.886 58.1188 157.152C58.2775 157.418 58.4875 157.628 58.7488 157.782C59.0148 157.936 59.3461 158.013 59.7428 158.013C60.0555 158.013 60.3401 157.959 60.5968 157.852C60.8535 157.745 61.0728 157.586 61.2548 157.376C61.4368 157.161 61.5768 156.891 61.6748 156.564C61.7728 156.237 61.8218 155.857 61.8218 155.423L62.6408 155.675C62.6408 156.403 62.5078 157.031 62.2418 157.558C61.9805 158.085 61.6095 158.491 61.1288 158.776C60.6528 159.056 60.0905 159.196 59.4418 159.196ZM61.9618 159V156.977H61.8218V151.44H63.0748V159H61.9618ZM68.3197 159.21C67.5544 159.21 66.9034 159.04 66.3667 158.699C65.8347 158.354 65.4287 157.88 65.1487 157.278C64.8687 156.676 64.724 155.99 64.7147 155.22C64.724 154.431 64.871 153.738 65.1557 153.141C65.445 152.539 65.858 152.07 66.3947 151.734C66.9314 151.398 67.5777 151.23 68.3337 151.23C69.1317 151.23 69.8177 151.426 70.3917 151.818C70.9704 152.21 71.3577 152.747 71.5537 153.428L70.3217 153.799C70.163 153.36 69.904 153.02 69.5447 152.777C69.19 152.534 68.7817 152.413 68.3197 152.413C67.8017 152.413 67.3747 152.534 67.0387 152.777C66.7027 153.015 66.453 153.346 66.2897 153.771C66.1264 154.191 66.0424 154.674 66.0377 155.22C66.047 156.06 66.2407 156.739 66.6187 157.257C67.0014 157.77 67.5684 158.027 68.3197 158.027C68.8144 158.027 69.225 157.915 69.5517 157.691C69.8784 157.462 70.1257 157.133 70.2937 156.704L71.5537 157.033C71.2924 157.738 70.884 158.277 70.3287 158.65C69.7734 159.023 69.1037 159.21 68.3197 159.21ZM73.0173 150.103V148.815H74.2633V150.103H73.0173ZM73.0173 159V151.44H74.2633V159H73.0173ZM79.6836 159.21C78.9323 159.21 78.2836 159.04 77.7376 158.699C77.1963 158.358 76.7786 157.887 76.4846 157.285C76.1906 156.683 76.0436 155.992 76.0436 155.213C76.0436 154.42 76.1929 153.724 76.4916 153.127C76.7903 152.53 77.2126 152.065 77.7586 151.734C78.3046 151.398 78.9463 151.23 79.6836 151.23C80.4396 151.23 81.0906 151.4 81.6366 151.741C82.1826 152.077 82.6003 152.546 82.8896 153.148C83.1836 153.745 83.3306 154.434 83.3306 155.213C83.3306 156.002 83.1836 156.697 82.8896 157.299C82.5956 157.896 82.1756 158.365 81.6296 158.706C81.0836 159.042 80.4349 159.21 79.6836 159.21ZM79.6836 158.027C80.4676 158.027 81.0509 157.766 81.4336 157.243C81.8163 156.72 82.0076 156.044 82.0076 155.213C82.0076 154.359 81.8139 153.68 81.4266 153.176C81.0393 152.667 80.4583 152.413 79.6836 152.413C79.1563 152.413 78.7223 152.532 78.3816 152.77C78.0409 153.008 77.7866 153.337 77.6186 153.757C77.4506 154.177 77.3666 154.662 77.3666 155.213C77.3666 156.062 77.5626 156.744 77.9546 157.257C78.3466 157.77 78.9229 158.027 79.6836 158.027ZM90.3548 159V155.213C90.3548 154.854 90.3221 154.508 90.2568 154.177C90.1961 153.846 90.0865 153.549 89.9278 153.288C89.7738 153.022 89.5638 152.812 89.2978 152.658C89.0365 152.504 88.7051 152.427 88.3038 152.427C87.9911 152.427 87.7065 152.481 87.4498 152.588C87.1978 152.691 86.9808 152.849 86.7988 153.064C86.6168 153.279 86.4745 153.549 86.3718 153.876C86.2738 154.198 86.2248 154.578 86.2248 155.017L85.4058 154.765C85.4058 154.032 85.5365 153.405 85.7978 152.882C86.0638 152.355 86.4348 151.951 86.9108 151.671C87.3915 151.386 87.9561 151.244 88.6048 151.244C89.0948 151.244 89.5125 151.321 89.8578 151.475C90.2031 151.629 90.4901 151.834 90.7188 152.091C90.9475 152.343 91.1271 152.628 91.2578 152.945C91.3885 153.258 91.4795 153.577 91.5308 153.904C91.5868 154.226 91.6148 154.532 91.6148 154.821V159H90.3548ZM84.9648 159V151.44H86.0848V153.463H86.2248V159H84.9648ZM96.7423 159.21C96.0003 159.21 95.3517 159.047 94.7963 158.72C94.2457 158.389 93.8163 157.929 93.5083 157.341C93.2003 156.748 93.0463 156.058 93.0463 155.269C93.0463 154.443 93.198 153.729 93.5013 153.127C93.8047 152.52 94.227 152.054 94.7683 151.727C95.3143 151.396 95.9537 151.23 96.6863 151.23C97.447 151.23 98.0933 151.405 98.6253 151.755C99.162 152.105 99.5633 152.604 99.8293 153.253C100.1 153.902 100.217 154.674 100.179 155.57H98.9193V155.122C98.9053 154.193 98.7163 153.5 98.3523 153.043C97.9883 152.581 97.447 152.35 96.7283 152.35C95.9583 152.35 95.3727 152.597 94.9713 153.092C94.57 153.587 94.3693 154.296 94.3693 155.22C94.3693 156.111 94.57 156.802 94.9713 157.292C95.3727 157.782 95.9443 158.027 96.6863 158.027C97.1857 158.027 97.6197 157.913 97.9883 157.684C98.357 157.455 98.6463 157.126 98.8563 156.697L100.053 157.11C99.7593 157.777 99.316 158.295 98.7233 158.664C98.1353 159.028 97.475 159.21 96.7423 159.21ZM93.9493 155.57V154.569H99.5353V155.57H93.9493ZM104.694 159.203C103.793 159.203 103.053 159.007 102.475 158.615C101.901 158.218 101.548 157.665 101.418 156.956L102.692 156.753C102.794 157.164 103.03 157.49 103.399 157.733C103.767 157.971 104.225 158.09 104.771 158.09C105.289 158.09 105.695 157.983 105.989 157.768C106.283 157.553 106.43 157.262 106.43 156.893C106.43 156.678 106.381 156.506 106.283 156.375C106.185 156.24 105.982 156.114 105.674 155.997C105.37 155.88 104.911 155.74 104.295 155.577C103.627 155.4 103.102 155.215 102.72 155.024C102.337 154.833 102.064 154.611 101.901 154.359C101.737 154.107 101.656 153.801 101.656 153.442C101.656 152.999 101.777 152.611 102.02 152.28C102.262 151.944 102.601 151.685 103.035 151.503C103.473 151.321 103.982 151.23 104.561 151.23C105.135 151.23 105.648 151.321 106.101 151.503C106.553 151.685 106.917 151.944 107.193 152.28C107.473 152.611 107.638 152.999 107.69 153.442L106.416 153.673C106.355 153.267 106.159 152.947 105.828 152.714C105.501 152.481 105.079 152.357 104.561 152.343C104.071 152.324 103.672 152.411 103.364 152.602C103.06 152.793 102.909 153.052 102.909 153.379C102.909 153.561 102.965 153.717 103.077 153.848C103.193 153.979 103.406 154.102 103.714 154.219C104.026 154.336 104.479 154.469 105.072 154.618C105.739 154.786 106.264 154.97 106.647 155.171C107.034 155.367 107.309 155.6 107.473 155.871C107.636 156.137 107.718 156.466 107.718 156.858C107.718 157.586 107.449 158.16 106.913 158.58C106.376 158.995 105.636 159.203 104.694 159.203ZM112.264 159V151.44H113.377V153.267L113.195 153.029C113.284 152.796 113.398 152.581 113.538 152.385C113.683 152.189 113.844 152.028 114.021 151.902C114.217 151.743 114.439 151.622 114.686 151.538C114.934 151.454 115.186 151.405 115.442 151.391C115.699 151.372 115.939 151.389 116.163 151.44V152.609C115.902 152.539 115.615 152.52 115.302 152.553C114.99 152.586 114.7 152.7 114.434 152.896C114.192 153.069 114.003 153.279 113.867 153.526C113.737 153.773 113.646 154.042 113.594 154.331C113.543 154.616 113.517 154.907 113.517 155.206V159H112.264ZM120.726 159.21C119.984 159.21 119.336 159.047 118.78 158.72C118.23 158.389 117.8 157.929 117.492 157.341C117.184 156.748 117.03 156.058 117.03 155.269C117.03 154.443 117.182 153.729 117.485 153.127C117.789 152.52 118.211 152.054 118.752 151.727C119.298 151.396 119.938 151.23 120.67 151.23C121.431 151.23 122.077 151.405 122.609 151.755C123.146 152.105 123.547 152.604 123.813 153.253C124.084 153.902 124.201 154.674 124.163 155.57H122.903V155.122C122.889 154.193 122.7 153.5 122.336 153.043C121.972 152.581 121.431 152.35 120.712 152.35C119.942 152.35 119.357 152.597 118.955 153.092C118.554 153.587 118.353 154.296 118.353 155.22C118.353 156.111 118.554 156.802 118.955 157.292C119.357 157.782 119.928 158.027 120.67 158.027C121.17 158.027 121.604 157.913 121.972 157.684C122.341 157.455 122.63 157.126 122.84 156.697L124.037 157.11C123.743 157.777 123.3 158.295 122.707 158.664C122.119 159.028 121.459 159.21 120.726 159.21ZM117.933 155.57V154.569H123.519V155.57H117.933ZM127.834 159.21C127.269 159.21 126.796 159.107 126.413 158.902C126.035 158.692 125.748 158.417 125.552 158.076C125.361 157.735 125.265 157.362 125.265 156.956C125.265 156.559 125.34 156.216 125.489 155.927C125.643 155.633 125.858 155.39 126.133 155.199C126.408 155.003 126.737 154.849 127.12 154.737C127.479 154.639 127.881 154.555 128.324 154.485C128.772 154.41 129.225 154.343 129.682 154.282C130.139 154.221 130.566 154.163 130.963 154.107L130.515 154.366C130.529 153.694 130.394 153.197 130.109 152.875C129.829 152.553 129.344 152.392 128.653 152.392C128.196 152.392 127.794 152.497 127.449 152.707C127.108 152.912 126.868 153.248 126.728 153.715L125.545 153.358C125.727 152.695 126.079 152.175 126.602 151.797C127.125 151.419 127.813 151.23 128.667 151.23C129.353 151.23 129.941 151.354 130.431 151.601C130.926 151.844 131.28 152.212 131.495 152.707C131.602 152.94 131.67 153.195 131.698 153.47C131.726 153.741 131.74 154.025 131.74 154.324V159H130.634V157.187L130.893 157.355C130.608 157.966 130.209 158.428 129.696 158.741C129.187 159.054 128.567 159.21 127.834 159.21ZM128.023 158.167C128.471 158.167 128.858 158.088 129.185 157.929C129.516 157.766 129.782 157.553 129.983 157.292C130.184 157.026 130.314 156.737 130.375 156.424C130.445 156.191 130.482 155.932 130.487 155.647C130.496 155.358 130.501 155.136 130.501 154.982L130.935 155.171C130.529 155.227 130.13 155.281 129.738 155.332C129.346 155.383 128.975 155.439 128.625 155.5C128.275 155.556 127.96 155.624 127.68 155.703C127.475 155.768 127.281 155.852 127.099 155.955C126.922 156.058 126.777 156.191 126.665 156.354C126.558 156.513 126.504 156.711 126.504 156.949C126.504 157.154 126.555 157.35 126.658 157.537C126.765 157.724 126.929 157.875 127.148 157.992C127.372 158.109 127.664 158.167 128.023 158.167ZM133.8 159V148.71H135.046V159H133.8ZM140.522 159.21C139.78 159.21 139.132 159.047 138.576 158.72C138.026 158.389 137.596 157.929 137.288 157.341C136.98 156.748 136.826 156.058 136.826 155.269C136.826 154.443 136.978 153.729 137.281 153.127C137.585 152.52 138.007 152.054 138.548 151.727C139.094 151.396 139.734 151.23 140.466 151.23C141.227 151.23 141.873 151.405 142.405 151.755C142.942 152.105 143.343 152.604 143.609 153.253C143.88 153.902 143.997 154.674 143.959 155.57H142.699V155.122C142.685 154.193 142.496 153.5 142.132 153.043C141.768 152.581 141.227 152.35 140.508 152.35C139.738 152.35 139.153 152.597 138.751 153.092C138.35 153.587 138.149 154.296 138.149 155.22C138.149 156.111 138.35 156.802 138.751 157.292C139.153 157.782 139.724 158.027 140.466 158.027C140.966 158.027 141.4 157.913 141.768 157.684C142.137 157.455 142.426 157.126 142.636 156.697L143.833 157.11C143.539 157.777 143.096 158.295 142.503 158.664C141.915 159.028 141.255 159.21 140.522 159.21ZM137.729 155.57V154.569H143.315V155.57H137.729ZM148.474 159.203C147.573 159.203 146.834 159.007 146.255 158.615C145.681 158.218 145.329 157.665 145.198 156.956L146.472 156.753C146.575 157.164 146.81 157.49 147.179 157.733C147.548 157.971 148.005 158.09 148.551 158.09C149.069 158.09 149.475 157.983 149.769 157.768C150.063 157.553 150.21 157.262 150.21 156.893C150.21 156.678 150.161 156.506 150.063 156.375C149.965 156.24 149.762 156.114 149.454 155.997C149.151 155.88 148.691 155.74 148.075 155.577C147.408 155.4 146.883 155.215 146.5 155.024C146.117 154.833 145.844 154.611 145.681 154.359C145.518 154.107 145.436 153.801 145.436 153.442C145.436 152.999 145.557 152.611 145.8 152.28C146.043 151.944 146.381 151.685 146.815 151.503C147.254 151.321 147.762 151.23 148.341 151.23C148.915 151.23 149.428 151.321 149.881 151.503C150.334 151.685 150.698 151.944 150.973 152.28C151.253 152.611 151.419 152.999 151.47 153.442L150.196 153.673C150.135 153.267 149.939 152.947 149.608 152.714C149.281 152.481 148.859 152.357 148.341 152.343C147.851 152.324 147.452 152.411 147.144 152.602C146.841 152.793 146.689 153.052 146.689 153.379C146.689 153.561 146.745 153.717 146.857 153.848C146.974 153.979 147.186 154.102 147.494 154.219C147.807 154.336 148.259 154.469 148.852 154.618C149.519 154.786 150.044 154.97 150.427 155.171C150.814 155.367 151.09 155.6 151.253 155.871C151.416 156.137 151.498 156.466 151.498 156.858C151.498 157.586 151.23 158.16 150.693 158.58C150.156 158.995 149.417 159.203 148.474 159.203ZM159.229 159.21C158.464 159.21 157.813 159.04 157.276 158.699C156.744 158.354 156.338 157.88 156.058 157.278C155.778 156.676 155.634 155.99 155.624 155.22C155.634 154.431 155.781 153.738 156.065 153.141C156.355 152.539 156.768 152.07 157.304 151.734C157.841 151.398 158.487 151.23 159.243 151.23C160.041 151.23 160.727 151.426 161.301 151.818C161.88 152.21 162.267 152.747 162.463 153.428L161.231 153.799C161.073 153.36 160.814 153.02 160.454 152.777C160.1 152.534 159.691 152.413 159.229 152.413C158.711 152.413 158.284 152.534 157.948 152.777C157.612 153.015 157.363 153.346 157.199 153.771C157.036 154.191 156.952 154.674 156.947 155.22C156.957 156.06 157.15 156.739 157.528 157.257C157.911 157.77 158.478 158.027 159.229 158.027C159.724 158.027 160.135 157.915 160.461 157.691C160.788 157.462 161.035 157.133 161.203 156.704L162.463 157.033C162.202 157.738 161.794 158.277 161.238 158.65C160.683 159.023 160.013 159.21 159.229 159.21ZM163.992 159V151.44H165.105V153.267L164.923 153.029C165.012 152.796 165.126 152.581 165.266 152.385C165.411 152.189 165.572 152.028 165.749 151.902C165.945 151.743 166.167 151.622 166.414 151.538C166.661 151.454 166.913 151.405 167.17 151.391C167.427 151.372 167.667 151.389 167.891 151.44V152.609C167.63 152.539 167.343 152.52 167.03 152.553C166.717 152.586 166.428 152.7 166.162 152.896C165.919 153.069 165.73 153.279 165.595 153.526C165.464 153.773 165.373 154.042 165.322 154.331C165.271 154.616 165.245 154.907 165.245 155.206V159H163.992ZM172.454 159.21C171.712 159.21 171.063 159.047 170.508 158.72C169.957 158.389 169.528 157.929 169.22 157.341C168.912 156.748 168.758 156.058 168.758 155.269C168.758 154.443 168.91 153.729 169.213 153.127C169.516 152.52 169.939 152.054 170.48 151.727C171.026 151.396 171.665 151.23 172.398 151.23C173.159 151.23 173.805 151.405 174.337 151.755C174.874 152.105 175.275 152.604 175.541 153.253C175.812 153.902 175.928 154.674 175.891 155.57H174.631V155.122C174.617 154.193 174.428 153.5 174.064 153.043C173.7 152.581 173.159 152.35 172.44 152.35C171.67 152.35 171.084 152.597 170.683 153.092C170.282 153.587 170.081 154.296 170.081 155.22C170.081 156.111 170.282 156.802 170.683 157.292C171.084 157.782 171.656 158.027 172.398 158.027C172.897 158.027 173.331 157.913 173.7 157.684C174.069 157.455 174.358 157.126 174.568 156.697L175.765 157.11C175.471 157.777 175.028 158.295 174.435 158.664C173.847 159.028 173.187 159.21 172.454 159.21ZM169.661 155.57V154.569H175.247V155.57H169.661ZM179.562 159.21C178.997 159.21 178.523 159.107 178.141 158.902C177.763 158.692 177.476 158.417 177.28 158.076C177.088 157.735 176.993 157.362 176.993 156.956C176.993 156.559 177.067 156.216 177.217 155.927C177.371 155.633 177.585 155.39 177.861 155.199C178.136 155.003 178.465 154.849 178.848 154.737C179.207 154.639 179.608 154.555 180.052 154.485C180.5 154.41 180.952 154.343 181.41 154.282C181.867 154.221 182.294 154.163 182.691 154.107L182.243 154.366C182.257 153.694 182.121 153.197 181.837 152.875C181.557 152.553 181.071 152.392 180.381 152.392C179.923 152.392 179.522 152.497 179.177 152.707C178.836 152.912 178.596 153.248 178.456 153.715L177.273 153.358C177.455 152.695 177.807 152.175 178.33 151.797C178.852 151.419 179.541 151.23 180.395 151.23C181.081 151.23 181.669 151.354 182.159 151.601C182.653 151.844 183.008 152.212 183.223 152.707C183.33 152.94 183.398 153.195 183.426 153.47C183.454 153.741 183.468 154.025 183.468 154.324V159H182.362V157.187L182.621 157.355C182.336 157.966 181.937 158.428 181.424 158.741C180.915 159.054 180.294 159.21 179.562 159.21ZM179.751 158.167C180.199 158.167 180.586 158.088 180.913 157.929C181.244 157.766 181.51 157.553 181.711 157.292C181.911 157.026 182.042 156.737 182.103 156.424C182.173 156.191 182.21 155.932 182.215 155.647C182.224 155.358 182.229 155.136 182.229 154.982L182.663 155.171C182.257 155.227 181.858 155.281 181.466 155.332C181.074 155.383 180.703 155.439 180.353 155.5C180.003 155.556 179.688 155.624 179.408 155.703C179.202 155.768 179.009 155.852 178.827 155.955C178.649 156.058 178.505 156.191 178.393 156.354C178.285 156.513 178.232 156.711 178.232 156.949C178.232 157.154 178.283 157.35 178.386 157.537C178.493 157.724 178.656 157.875 178.876 157.992C179.1 158.109 179.391 158.167 179.751 158.167ZM188.356 159.21C187.651 159.21 187.047 159.035 186.543 158.685C186.039 158.33 185.649 157.852 185.374 157.25C185.103 156.648 184.968 155.969 184.968 155.213C184.968 154.457 185.103 153.778 185.374 153.176C185.649 152.574 186.039 152.1 186.543 151.755C187.047 151.405 187.649 151.23 188.349 151.23C189.063 151.23 189.662 151.403 190.148 151.748C190.633 152.093 190.999 152.567 191.247 153.169C191.499 153.771 191.625 154.452 191.625 155.213C191.625 155.964 191.499 156.643 191.247 157.25C190.999 157.852 190.633 158.33 190.148 158.685C189.662 159.035 189.065 159.21 188.356 159.21ZM188.51 158.069C189.018 158.069 189.436 157.948 189.763 157.705C190.089 157.458 190.33 157.119 190.484 156.69C190.642 156.256 190.722 155.764 190.722 155.213C190.722 154.653 190.642 154.161 190.484 153.736C190.33 153.307 190.092 152.973 189.77 152.735C189.448 152.492 189.039 152.371 188.545 152.371C188.031 152.371 187.607 152.497 187.271 152.749C186.939 153.001 186.692 153.342 186.529 153.771C186.37 154.2 186.291 154.681 186.291 155.213C186.291 155.75 186.372 156.235 186.536 156.669C186.699 157.098 186.944 157.439 187.271 157.691C187.602 157.943 188.015 158.069 188.51 158.069ZM190.722 159V153.435H190.582V148.92H191.835V159H190.722ZM196.045 159.21C195.48 159.21 195.007 159.107 194.624 158.902C194.246 158.692 193.959 158.417 193.763 158.076C193.572 157.735 193.476 157.362 193.476 156.956C193.476 156.559 193.551 156.216 193.7 155.927C193.854 155.633 194.069 155.39 194.344 155.199C194.619 155.003 194.948 154.849 195.331 154.737C195.69 154.639 196.092 154.555 196.535 154.485C196.983 154.41 197.436 154.343 197.893 154.282C198.35 154.221 198.777 154.163 199.174 154.107L198.726 154.366C198.74 153.694 198.605 153.197 198.32 152.875C198.04 152.553 197.555 152.392 196.864 152.392C196.407 152.392 196.005 152.497 195.66 152.707C195.319 152.912 195.079 153.248 194.939 153.715L193.756 153.358C193.938 152.695 194.29 152.175 194.813 151.797C195.336 151.419 196.024 151.23 196.878 151.23C197.564 151.23 198.152 151.354 198.642 151.601C199.137 151.844 199.491 152.212 199.706 152.707C199.813 152.94 199.881 153.195 199.909 153.47C199.937 153.741 199.951 154.025 199.951 154.324V159H198.845V157.187L199.104 157.355C198.819 157.966 198.42 158.428 197.907 158.741C197.398 159.054 196.778 159.21 196.045 159.21ZM196.234 158.167C196.682 158.167 197.069 158.088 197.396 157.929C197.727 157.766 197.993 157.553 198.194 157.292C198.395 157.026 198.525 156.737 198.586 156.424C198.656 156.191 198.693 155.932 198.698 155.647C198.707 155.358 198.712 155.136 198.712 154.982L199.146 155.171C198.74 155.227 198.341 155.281 197.949 155.332C197.557 155.383 197.186 155.439 196.836 155.5C196.486 155.556 196.171 155.624 195.891 155.703C195.686 155.768 195.492 155.852 195.31 155.955C195.133 156.058 194.988 156.191 194.876 156.354C194.769 156.513 194.715 156.711 194.715 156.949C194.715 157.154 194.766 157.35 194.869 157.537C194.976 157.724 195.14 157.875 195.359 157.992C195.583 158.109 195.875 158.167 196.234 158.167ZM204.727 159.203C203.826 159.203 203.087 159.007 202.508 158.615C201.934 158.218 201.582 157.665 201.451 156.956L202.725 156.753C202.828 157.164 203.063 157.49 203.432 157.733C203.801 157.971 204.258 158.09 204.804 158.09C205.322 158.09 205.728 157.983 206.022 157.768C206.316 157.553 206.463 157.262 206.463 156.893C206.463 156.678 206.414 156.506 206.316 156.375C206.218 156.24 206.015 156.114 205.707 155.997C205.404 155.88 204.944 155.74 204.328 155.577C203.661 155.4 203.136 155.215 202.753 155.024C202.37 154.833 202.097 154.611 201.934 154.359C201.771 154.107 201.689 153.801 201.689 153.442C201.689 152.999 201.81 152.611 202.053 152.28C202.296 151.944 202.634 151.685 203.068 151.503C203.507 151.321 204.015 151.23 204.594 151.23C205.168 151.23 205.681 151.321 206.134 151.503C206.587 151.685 206.951 151.944 207.226 152.28C207.506 152.611 207.672 152.999 207.723 153.442L206.449 153.673C206.388 153.267 206.192 152.947 205.861 152.714C205.534 152.481 205.112 152.357 204.594 152.343C204.104 152.324 203.705 152.411 203.397 152.602C203.094 152.793 202.942 153.052 202.942 153.379C202.942 153.561 202.998 153.717 203.11 153.848C203.227 153.979 203.439 154.102 203.747 154.219C204.06 154.336 204.512 154.469 205.105 154.618C205.772 154.786 206.297 154.97 206.68 155.171C207.067 155.367 207.343 155.6 207.506 155.871C207.669 156.137 207.751 156.466 207.751 156.858C207.751 157.586 207.483 158.16 206.946 158.58C206.409 158.995 205.67 159.203 204.727 159.203ZM215.483 159.21C214.717 159.21 214.066 159.04 213.53 158.699C212.998 158.354 212.592 157.88 212.312 157.278C212.032 156.676 211.887 155.99 211.878 155.22C211.887 154.431 212.034 153.738 212.319 153.141C212.608 152.539 213.021 152.07 213.558 151.734C214.094 151.398 214.741 151.23 215.497 151.23C216.295 151.23 216.981 151.426 217.555 151.818C218.133 152.21 218.521 152.747 218.717 153.428L217.485 153.799C217.326 153.36 217.067 153.02 216.708 152.777C216.353 152.534 215.945 152.413 215.483 152.413C214.965 152.413 214.538 152.534 214.202 152.777C213.866 153.015 213.616 153.346 213.453 153.771C213.289 154.191 213.205 154.674 213.201 155.22C213.21 156.06 213.404 156.739 213.782 157.257C214.164 157.77 214.731 158.027 215.483 158.027C215.977 158.027 216.388 157.915 216.715 157.691C217.041 157.462 217.289 157.133 217.457 156.704L218.717 157.033C218.455 157.738 218.047 158.277 217.492 158.65C216.936 159.023 216.267 159.21 215.483 159.21ZM223.26 159.21C222.509 159.21 221.86 159.04 221.314 158.699C220.773 158.358 220.355 157.887 220.061 157.285C219.767 156.683 219.62 155.992 219.62 155.213C219.62 154.42 219.769 153.724 220.068 153.127C220.367 152.53 220.789 152.065 221.335 151.734C221.881 151.398 222.523 151.23 223.26 151.23C224.016 151.23 224.667 151.4 225.213 151.741C225.759 152.077 226.177 152.546 226.466 153.148C226.76 153.745 226.907 154.434 226.907 155.213C226.907 156.002 226.76 156.697 226.466 157.299C226.172 157.896 225.752 158.365 225.206 158.706C224.66 159.042 224.011 159.21 223.26 159.21ZM223.26 158.027C224.044 158.027 224.627 157.766 225.01 157.243C225.393 156.72 225.584 156.044 225.584 155.213C225.584 154.359 225.39 153.68 225.003 153.176C224.616 152.667 224.035 152.413 223.26 152.413C222.733 152.413 222.299 152.532 221.958 152.77C221.617 153.008 221.363 153.337 221.195 153.757C221.027 154.177 220.943 154.662 220.943 155.213C220.943 156.062 221.139 156.744 221.531 157.257C221.923 157.77 222.499 158.027 223.26 158.027ZM233.931 159V155.213C233.931 154.854 233.899 154.508 233.833 154.177C233.773 153.846 233.663 153.549 233.504 153.288C233.35 153.022 233.14 152.812 232.874 152.658C232.613 152.504 232.282 152.427 231.88 152.427C231.568 152.427 231.283 152.481 231.026 152.588C230.774 152.691 230.557 152.849 230.375 153.064C230.193 153.279 230.051 153.549 229.948 153.876C229.85 154.198 229.801 154.578 229.801 155.017L228.982 154.765C228.982 154.032 229.113 153.405 229.374 152.882C229.64 152.355 230.011 151.951 230.487 151.671C230.968 151.386 231.533 151.244 232.181 151.244C232.671 151.244 233.089 151.321 233.434 151.475C233.78 151.629 234.067 151.834 234.295 152.091C234.524 152.343 234.704 152.628 234.834 152.945C234.965 153.258 235.056 153.577 235.107 153.904C235.163 154.226 235.191 154.532 235.191 154.821V159H233.931ZM228.541 159V151.44H229.661V153.463H229.801V159H228.541ZM240.735 159V151.027C240.735 150.831 240.744 150.633 240.763 150.432C240.782 150.227 240.824 150.028 240.889 149.837C240.954 149.641 241.062 149.461 241.211 149.298C241.384 149.107 241.573 148.971 241.778 148.892C241.983 148.808 242.191 148.757 242.401 148.738C242.616 148.719 242.819 148.71 243.01 148.71H243.969V149.746H243.08C242.711 149.746 242.436 149.837 242.254 150.019C242.072 150.196 241.981 150.467 241.981 150.831V159H240.735ZM239.454 152.469V151.44H243.969V152.469H239.454ZM248.133 159.21C247.381 159.21 246.733 159.04 246.187 158.699C245.645 158.358 245.228 157.887 244.934 157.285C244.64 156.683 244.493 155.992 244.493 155.213C244.493 154.42 244.642 153.724 244.941 153.127C245.239 152.53 245.662 152.065 246.208 151.734C246.754 151.398 247.395 151.23 248.133 151.23C248.889 151.23 249.54 151.4 250.086 151.741C250.632 152.077 251.049 152.546 251.339 153.148C251.633 153.745 251.78 154.434 251.78 155.213C251.78 156.002 251.633 156.697 251.339 157.299C251.045 157.896 250.625 158.365 250.079 158.706C249.533 159.042 248.884 159.21 248.133 159.21ZM248.133 158.027C248.917 158.027 249.5 157.766 249.883 157.243C250.265 156.72 250.457 156.044 250.457 155.213C250.457 154.359 250.263 153.68 249.876 153.176C249.488 152.667 248.907 152.413 248.133 152.413C247.605 152.413 247.171 152.532 246.831 152.77C246.49 153.008 246.236 153.337 246.068 153.757C245.9 154.177 245.816 154.662 245.816 155.213C245.816 156.062 246.012 156.744 246.404 157.257C246.796 157.77 247.372 158.027 248.133 158.027ZM256.606 159.21C255.841 159.21 255.19 159.04 254.653 158.699C254.121 158.354 253.715 157.88 253.435 157.278C253.155 156.676 253.01 155.99 253.001 155.22C253.01 154.431 253.157 153.738 253.442 153.141C253.731 152.539 254.144 152.07 254.681 151.734C255.218 151.398 255.864 151.23 256.62 151.23C257.418 151.23 258.104 151.426 258.678 151.818C259.257 152.21 259.644 152.747 259.84 153.428L258.608 153.799C258.449 153.36 258.19 153.02 257.831 152.777C257.476 152.534 257.068 152.413 256.606 152.413C256.088 152.413 255.661 152.534 255.325 152.777C254.989 153.015 254.739 153.346 254.576 153.771C254.413 154.191 254.329 154.674 254.324 155.22C254.333 156.06 254.527 156.739 254.905 157.257C255.288 157.77 255.855 158.027 256.606 158.027C257.101 158.027 257.511 157.915 257.838 157.691C258.165 157.462 258.412 157.133 258.58 156.704L259.84 157.033C259.579 157.738 259.17 158.277 258.615 158.65C258.06 159.023 257.39 159.21 256.606 159.21ZM264.384 159.21C263.632 159.21 262.984 159.04 262.438 158.699C261.896 158.358 261.479 157.887 261.185 157.285C260.891 156.683 260.744 155.992 260.744 155.213C260.744 154.42 260.893 153.724 261.192 153.127C261.49 152.53 261.913 152.065 262.459 151.734C263.005 151.398 263.646 151.23 264.384 151.23C265.14 151.23 265.791 151.4 266.337 151.741C266.883 152.077 267.3 152.546 267.59 153.148C267.884 153.745 268.031 154.434 268.031 155.213C268.031 156.002 267.884 156.697 267.59 157.299C267.296 157.896 266.876 158.365 266.33 158.706C265.784 159.042 265.135 159.21 264.384 159.21ZM264.384 158.027C265.168 158.027 265.751 157.766 266.134 157.243C266.516 156.72 266.708 156.044 266.708 155.213C266.708 154.359 266.514 153.68 266.127 153.176C265.739 152.667 265.158 152.413 264.384 152.413C263.856 152.413 263.422 152.532 263.082 152.77C262.741 153.008 262.487 153.337 262.319 153.757C262.151 154.177 262.067 154.662 262.067 155.213C262.067 156.062 262.263 156.744 262.655 157.257C263.047 157.77 263.623 158.027 264.384 158.027ZM275.851 159.21C275.109 159.21 274.46 159.047 273.905 158.72C273.354 158.389 272.925 157.929 272.617 157.341C272.309 156.748 272.155 156.058 272.155 155.269C272.155 154.443 272.306 153.729 272.61 153.127C272.913 152.52 273.335 152.054 273.877 151.727C274.423 151.396 275.062 151.23 275.795 151.23C276.555 151.23 277.202 151.405 277.734 151.755C278.27 152.105 278.672 152.604 278.938 153.253C279.208 153.902 279.325 154.674 279.288 155.57H278.028V155.122C278.014 154.193 277.825 153.5 277.461 153.043C277.097 152.581 276.555 152.35 275.837 152.35C275.067 152.35 274.481 152.597 274.08 153.092C273.678 153.587 273.478 154.296 273.478 155.22C273.478 156.111 273.678 156.802 274.08 157.292C274.481 157.782 275.053 158.027 275.795 158.027C276.294 158.027 276.728 157.913 277.097 157.684C277.465 157.455 277.755 157.126 277.965 156.697L279.162 157.11C278.868 157.777 278.424 158.295 277.832 158.664C277.244 159.028 276.583 159.21 275.851 159.21ZM273.058 155.57V154.569H278.644V155.57H273.058ZM286.124 159V155.213C286.124 154.854 286.091 154.508 286.026 154.177C285.965 153.846 285.856 153.549 285.697 153.288C285.543 153.022 285.333 152.812 285.067 152.658C284.806 152.504 284.474 152.427 284.073 152.427C283.76 152.427 283.476 152.481 283.219 152.588C282.967 152.691 282.75 152.849 282.568 153.064C282.386 153.279 282.244 153.549 282.141 153.876C282.043 154.198 281.994 154.578 281.994 155.017L281.175 154.765C281.175 154.032 281.306 153.405 281.567 152.882C281.833 152.355 282.204 151.951 282.68 151.671C283.161 151.386 283.725 151.244 284.374 151.244C284.864 151.244 285.282 151.321 285.627 151.475C285.972 151.629 286.259 151.834 286.488 152.091C286.717 152.343 286.896 152.628 287.027 152.945C287.158 153.258 287.249 153.577 287.3 153.904C287.356 154.226 287.384 154.532 287.384 154.821V159H286.124ZM280.734 159V151.44H281.854V153.463H281.994V159H280.734ZM49.1798 181.21C48.4378 181.21 47.7892 181.047 47.2338 180.72C46.6832 180.389 46.2538 179.929 45.9458 179.341C45.6378 178.748 45.4838 178.058 45.4838 177.269C45.4838 176.443 45.6355 175.729 45.9388 175.127C46.2422 174.52 46.6645 174.054 47.2058 173.727C47.7518 173.396 48.3912 173.23 49.1238 173.23C49.8845 173.23 50.5308 173.405 51.0628 173.755C51.5995 174.105 52.0008 174.604 52.2668 175.253C52.5375 175.902 52.6542 176.674 52.6168 177.57H51.3568V177.122C51.3428 176.193 51.1538 175.5 50.7898 175.043C50.4258 174.581 49.8845 174.35 49.1658 174.35C48.3958 174.35 47.8102 174.597 47.4088 175.092C47.0075 175.587 46.8068 176.296 46.8068 177.22C46.8068 178.111 47.0075 178.802 47.4088 179.292C47.8102 179.782 48.3818 180.027 49.1238 180.027C49.6232 180.027 50.0572 179.913 50.4258 179.684C50.7945 179.455 51.0838 179.126 51.2938 178.697L52.4908 179.11C52.1968 179.777 51.7535 180.295 51.1608 180.664C50.5728 181.028 49.9125 181.21 49.1798 181.21ZM46.3868 177.57V176.569H51.9728V177.57H46.3868ZM54.9963 181V173.027C54.9963 172.831 55.0056 172.633 55.0243 172.432C55.043 172.227 55.085 172.028 55.1503 171.837C55.2156 171.641 55.323 171.461 55.4723 171.298C55.645 171.107 55.834 170.971 56.0393 170.892C56.2446 170.808 56.4523 170.757 56.6623 170.738C56.877 170.719 57.08 170.71 57.2713 170.71H58.2303V171.746H57.3413C56.9726 171.746 56.6973 171.837 56.5153 172.019C56.3333 172.196 56.2423 172.467 56.2423 172.831V181H54.9963ZM53.7153 174.469V173.44H58.2303V174.469H53.7153ZM59.7927 172.103V170.815H61.0387V172.103H59.7927ZM59.7927 181V173.44H61.0387V181H59.7927ZM66.424 181.21C65.6587 181.21 65.0077 181.04 64.471 180.699C63.939 180.354 63.533 179.88 63.253 179.278C62.973 178.676 62.8283 177.99 62.819 177.22C62.8283 176.431 62.9753 175.738 63.26 175.141C63.5493 174.539 63.9623 174.07 64.499 173.734C65.0357 173.398 65.682 173.23 66.438 173.23C67.236 173.23 67.922 173.426 68.496 173.818C69.0747 174.21 69.462 174.747 69.658 175.428L68.426 175.799C68.2673 175.36 68.0083 175.02 67.649 174.777C67.2943 174.534 66.886 174.413 66.424 174.413C65.906 174.413 65.479 174.534 65.143 174.777C64.807 175.015 64.5573 175.346 64.394 175.771C64.2307 176.191 64.1467 176.674 64.142 177.22C64.1513 178.06 64.345 178.739 64.723 179.257C65.1057 179.77 65.6727 180.027 66.424 180.027C66.9187 180.027 67.3293 179.915 67.656 179.691C67.9827 179.462 68.23 179.133 68.398 178.704L69.658 179.033C69.3967 179.738 68.9883 180.277 68.433 180.65C67.8777 181.023 67.208 181.21 66.424 181.21ZM71.1216 172.103V170.815H72.3676V172.103H71.1216ZM71.1216 181V173.44H72.3676V181H71.1216ZM77.8439 181.21C77.1019 181.21 76.4532 181.047 75.8979 180.72C75.3472 180.389 74.9179 179.929 74.6099 179.341C74.3019 178.748 74.1479 178.058 74.1479 177.269C74.1479 176.443 74.2996 175.729 74.6029 175.127C74.9062 174.52 75.3286 174.054 75.8699 173.727C76.4159 173.396 77.0552 173.23 77.7879 173.23C78.5486 173.23 79.1949 173.405 79.7269 173.755C80.2636 174.105 80.6649 174.604 80.9309 175.253C81.2016 175.902 81.3182 176.674 81.2809 177.57H80.0209V177.122C80.0069 176.193 79.8179 175.5 79.4539 175.043C79.0899 174.581 78.5486 174.35 77.8299 174.35C77.0599 174.35 76.4742 174.597 76.0729 175.092C75.6716 175.587 75.4709 176.296 75.4709 177.22C75.4709 178.111 75.6716 178.802 76.0729 179.292C76.4742 179.782 77.0459 180.027 77.7879 180.027C78.2872 180.027 78.7212 179.913 79.0899 179.684C79.4586 179.455 79.7479 179.126 79.9579 178.697L81.1549 179.11C80.8609 179.777 80.4176 180.295 79.8249 180.664C79.2369 181.028 78.5766 181.21 77.8439 181.21ZM75.0509 177.57V176.569H80.6369V177.57H75.0509ZM88.1173 181V177.213C88.1173 176.854 88.0846 176.508 88.0193 176.177C87.9586 175.846 87.849 175.549 87.6903 175.288C87.5363 175.022 87.3263 174.812 87.0603 174.658C86.799 174.504 86.4676 174.427 86.0663 174.427C85.7536 174.427 85.469 174.481 85.2123 174.588C84.9603 174.691 84.7433 174.849 84.5613 175.064C84.3793 175.279 84.237 175.549 84.1343 175.876C84.0363 176.198 83.9873 176.578 83.9873 177.017L83.1683 176.765C83.1683 176.032 83.299 175.405 83.5603 174.882C83.8263 174.355 84.1973 173.951 84.6733 173.671C85.154 173.386 85.7186 173.244 86.3673 173.244C86.8573 173.244 87.275 173.321 87.6203 173.475C87.9656 173.629 88.2526 173.834 88.4813 174.091C88.71 174.343 88.8896 174.628 89.0203 174.945C89.151 175.258 89.242 175.577 89.2933 175.904C89.3493 176.226 89.3773 176.532 89.3773 176.821V181H88.1173ZM82.7273 181V173.44H83.8473V175.463H83.9873V181H82.7273ZM94.4138 181.21C93.6485 181.21 92.9975 181.04 92.4608 180.699C91.9288 180.354 91.5228 179.88 91.2428 179.278C90.9628 178.676 90.8182 177.99 90.8088 177.22C90.8182 176.431 90.9652 175.738 91.2498 175.141C91.5392 174.539 91.9522 174.07 92.4888 173.734C93.0255 173.398 93.6718 173.23 94.4278 173.23C95.2258 173.23 95.9118 173.426 96.4858 173.818C97.0645 174.21 97.4518 174.747 97.6478 175.428L96.4158 175.799C96.2572 175.36 95.9982 175.02 95.6388 174.777C95.2842 174.534 94.8758 174.413 94.4138 174.413C93.8958 174.413 93.4688 174.534 93.1328 174.777C92.7968 175.015 92.5472 175.346 92.3838 175.771C92.2205 176.191 92.1365 176.674 92.1318 177.22C92.1412 178.06 92.3348 178.739 92.7128 179.257C93.0955 179.77 93.6625 180.027 94.4138 180.027C94.9085 180.027 95.3192 179.915 95.6458 179.691C95.9725 179.462 96.2198 179.133 96.3878 178.704L97.6478 179.033C97.3865 179.738 96.9782 180.277 96.4228 180.65C95.8675 181.023 95.1978 181.21 94.4138 181.21ZM99.1114 172.103V170.815H100.357V172.103H99.1114ZM99.1114 181V173.44H100.357V181H99.1114ZM104.707 181.21C104.142 181.21 103.668 181.107 103.286 180.902C102.908 180.692 102.621 180.417 102.425 180.076C102.233 179.735 102.138 179.362 102.138 178.956C102.138 178.559 102.212 178.216 102.362 177.927C102.516 177.633 102.73 177.39 103.006 177.199C103.281 177.003 103.61 176.849 103.993 176.737C104.352 176.639 104.753 176.555 105.197 176.485C105.645 176.41 106.097 176.343 106.555 176.282C107.012 176.221 107.439 176.163 107.836 176.107L107.388 176.366C107.402 175.694 107.266 175.197 106.982 174.875C106.702 174.553 106.216 174.392 105.526 174.392C105.068 174.392 104.667 174.497 104.322 174.707C103.981 174.912 103.741 175.248 103.601 175.715L102.418 175.358C102.6 174.695 102.952 174.175 103.475 173.797C103.997 173.419 104.686 173.23 105.54 173.23C106.226 173.23 106.814 173.354 107.304 173.601C107.798 173.844 108.153 174.212 108.368 174.707C108.475 174.94 108.543 175.195 108.571 175.47C108.599 175.741 108.613 176.025 108.613 176.324V181H107.507V179.187L107.766 179.355C107.481 179.966 107.082 180.428 106.569 180.741C106.06 181.054 105.439 181.21 104.707 181.21ZM104.896 180.167C105.344 180.167 105.731 180.088 106.058 179.929C106.389 179.766 106.655 179.553 106.856 179.292C107.056 179.026 107.187 178.737 107.248 178.424C107.318 178.191 107.355 177.932 107.36 177.647C107.369 177.358 107.374 177.136 107.374 176.982L107.808 177.171C107.402 177.227 107.003 177.281 106.611 177.332C106.219 177.383 105.848 177.439 105.498 177.5C105.148 177.556 104.833 177.624 104.553 177.703C104.347 177.768 104.154 177.852 103.972 177.955C103.794 178.058 103.65 178.191 103.538 178.354C103.43 178.513 103.377 178.711 103.377 178.949C103.377 179.154 103.428 179.35 103.531 179.537C103.638 179.724 103.801 179.875 104.021 179.992C104.245 180.109 104.536 180.167 104.896 180.167ZM110.393 182.568L110.47 181.987C110.666 182.001 110.813 181.964 110.911 181.875C111.009 181.786 111.072 181.665 111.1 181.511C111.128 181.357 111.132 181.187 111.114 181H110.393V179.418H111.765V181.21C111.765 181.7 111.643 182.069 111.401 182.316C111.163 182.563 110.827 182.647 110.393 182.568ZM120.708 181.21C119.966 181.21 119.317 181.047 118.762 180.72C118.211 180.389 117.782 179.929 117.474 179.341C117.166 178.748 117.012 178.058 117.012 177.269C117.012 176.443 117.164 175.729 117.467 175.127C117.77 174.52 118.193 174.054 118.734 173.727C119.28 173.396 119.919 173.23 120.652 173.23C121.413 173.23 122.059 173.405 122.591 173.755C123.128 174.105 123.529 174.604 123.795 175.253C124.066 175.902 124.182 176.674 124.145 177.57H122.885V177.122C122.871 176.193 122.682 175.5 122.318 175.043C121.954 174.581 121.413 174.35 120.694 174.35C119.924 174.35 119.338 174.597 118.937 175.092C118.536 175.587 118.335 176.296 118.335 177.22C118.335 178.111 118.536 178.802 118.937 179.292C119.338 179.782 119.91 180.027 120.652 180.027C121.151 180.027 121.585 179.913 121.954 179.684C122.323 179.455 122.612 179.126 122.822 178.697L124.019 179.11C123.725 179.777 123.282 180.295 122.689 180.664C122.101 181.028 121.441 181.21 120.708 181.21ZM117.915 177.57V176.569H123.501V177.57H117.915ZM124.69 181L127.581 177.178L124.753 173.44H126.237L128.309 176.212L130.36 173.44H131.844L129.016 177.178L131.914 181H130.423L128.309 178.144L126.181 181H124.69ZM136.608 181.21C135.899 181.21 135.301 181.035 134.816 180.685C134.331 180.33 133.962 179.852 133.71 179.25C133.463 178.643 133.339 177.964 133.339 177.213C133.339 176.452 133.463 175.771 133.71 175.169C133.962 174.567 134.331 174.093 134.816 173.748C135.306 173.403 135.906 173.23 136.615 173.23C137.315 173.23 137.917 173.405 138.421 173.755C138.93 174.1 139.319 174.574 139.59 175.176C139.861 175.778 139.996 176.457 139.996 177.213C139.996 177.969 139.861 178.648 139.59 179.25C139.319 179.852 138.93 180.33 138.421 180.685C137.917 181.035 137.313 181.21 136.608 181.21ZM133.129 184.36V173.44H134.242V179.005H134.382V184.36H133.129ZM136.454 180.069C136.953 180.069 137.366 179.943 137.693 179.691C138.02 179.439 138.265 179.098 138.428 178.669C138.591 178.235 138.673 177.75 138.673 177.213C138.673 176.681 138.591 176.2 138.428 175.771C138.269 175.342 138.022 175.001 137.686 174.749C137.355 174.497 136.932 174.371 136.419 174.371C135.929 174.371 135.523 174.492 135.201 174.735C134.879 174.973 134.639 175.307 134.48 175.736C134.321 176.161 134.242 176.653 134.242 177.213C134.242 177.764 134.319 178.256 134.473 178.69C134.632 179.119 134.874 179.458 135.201 179.705C135.528 179.948 135.945 180.069 136.454 180.069ZM144.906 181.21C144.164 181.21 143.516 181.047 142.96 180.72C142.41 180.389 141.98 179.929 141.672 179.341C141.364 178.748 141.21 178.058 141.21 177.269C141.21 176.443 141.362 175.729 141.665 175.127C141.969 174.52 142.391 174.054 142.932 173.727C143.478 173.396 144.118 173.23 144.85 173.23C145.611 173.23 146.257 173.405 146.789 173.755C147.326 174.105 147.727 174.604 147.993 175.253C148.264 175.902 148.381 176.674 148.343 177.57H147.083V177.122C147.069 176.193 146.88 175.5 146.516 175.043C146.152 174.581 145.611 174.35 144.892 174.35C144.122 174.35 143.537 174.597 143.135 175.092C142.734 175.587 142.533 176.296 142.533 177.22C142.533 178.111 142.734 178.802 143.135 179.292C143.537 179.782 144.108 180.027 144.85 180.027C145.35 180.027 145.784 179.913 146.152 179.684C146.521 179.455 146.81 179.126 147.02 178.697L148.217 179.11C147.923 179.777 147.48 180.295 146.887 180.664C146.299 181.028 145.639 181.21 144.906 181.21ZM142.113 177.57V176.569H147.699V177.57H142.113ZM150.002 181V173.44H151.115V175.267L150.933 175.029C151.022 174.796 151.136 174.581 151.276 174.385C151.421 174.189 151.582 174.028 151.759 173.902C151.955 173.743 152.177 173.622 152.424 173.538C152.671 173.454 152.923 173.405 153.18 173.391C153.437 173.372 153.677 173.389 153.901 173.44V174.609C153.64 174.539 153.353 174.52 153.04 174.553C152.727 174.586 152.438 174.7 152.172 174.896C151.929 175.069 151.74 175.279 151.605 175.526C151.474 175.773 151.383 176.042 151.332 176.331C151.281 176.616 151.255 176.907 151.255 177.206V181H150.002ZM155.465 172.103V170.815H156.711V172.103H155.465ZM155.465 181V173.44H156.711V181H155.465ZM162.187 181.21C161.445 181.21 160.796 181.047 160.241 180.72C159.69 180.389 159.261 179.929 158.953 179.341C158.645 178.748 158.491 178.058 158.491 177.269C158.491 176.443 158.643 175.729 158.946 175.127C159.249 174.52 159.672 174.054 160.213 173.727C160.759 173.396 161.398 173.23 162.131 173.23C162.892 173.23 163.538 173.405 164.07 173.755C164.607 174.105 165.008 174.604 165.274 175.253C165.545 175.902 165.661 176.674 165.624 177.57H164.364V177.122C164.35 176.193 164.161 175.5 163.797 175.043C163.433 174.581 162.892 174.35 162.173 174.35C161.403 174.35 160.817 174.597 160.416 175.092C160.015 175.587 159.814 176.296 159.814 177.22C159.814 178.111 160.015 178.802 160.416 179.292C160.817 179.782 161.389 180.027 162.131 180.027C162.63 180.027 163.064 179.913 163.433 179.684C163.802 179.455 164.091 179.126 164.301 178.697L165.498 179.11C165.204 179.777 164.761 180.295 164.168 180.664C163.58 181.028 162.92 181.21 162.187 181.21ZM159.394 177.57V176.569H164.98V177.57H159.394ZM172.46 181V177.213C172.46 176.854 172.428 176.508 172.362 176.177C172.302 175.846 172.192 175.549 172.033 175.288C171.879 175.022 171.669 174.812 171.403 174.658C171.142 174.504 170.811 174.427 170.409 174.427C170.097 174.427 169.812 174.481 169.555 174.588C169.303 174.691 169.086 174.849 168.904 175.064C168.722 175.279 168.58 175.549 168.477 175.876C168.379 176.198 168.33 176.578 168.33 177.017L167.511 176.765C167.511 176.032 167.642 175.405 167.903 174.882C168.169 174.355 168.54 173.951 169.016 173.671C169.497 173.386 170.062 173.244 170.71 173.244C171.2 173.244 171.618 173.321 171.963 173.475C172.309 173.629 172.596 173.834 172.824 174.091C173.053 174.343 173.233 174.628 173.363 174.945C173.494 175.258 173.585 175.577 173.636 175.904C173.692 176.226 173.72 176.532 173.72 176.821V181H172.46ZM167.07 181V173.44H168.19V175.463H168.33V181H167.07ZM178.757 181.21C177.991 181.21 177.34 181.04 176.804 180.699C176.272 180.354 175.866 179.88 175.586 179.278C175.306 178.676 175.161 177.99 175.152 177.22C175.161 176.431 175.308 175.738 175.593 175.141C175.882 174.539 176.295 174.07 176.832 173.734C177.368 173.398 178.015 173.23 178.771 173.23C179.569 173.23 180.255 173.426 180.829 173.818C181.407 174.21 181.795 174.747 181.991 175.428L180.759 175.799C180.6 175.36 180.341 175.02 179.982 174.777C179.627 174.534 179.219 174.413 178.757 174.413C178.239 174.413 177.812 174.534 177.476 174.777C177.14 175.015 176.89 175.346 176.727 175.771C176.563 176.191 176.479 176.674 176.475 177.22C176.484 178.06 176.678 178.739 177.056 179.257C177.438 179.77 178.005 180.027 178.757 180.027C179.251 180.027 179.662 179.915 179.989 179.691C180.315 179.462 180.563 179.133 180.731 178.704L181.991 179.033C181.729 179.738 181.321 180.277 180.766 180.65C180.21 181.023 179.541 181.21 178.757 181.21ZM183.454 172.103V170.815H184.7V172.103H183.454ZM183.454 181V173.44H184.7V181H183.454ZM189.05 181.21C188.485 181.21 188.011 181.107 187.629 180.902C187.251 180.692 186.964 180.417 186.768 180.076C186.576 179.735 186.481 179.362 186.481 178.956C186.481 178.559 186.555 178.216 186.705 177.927C186.859 177.633 187.073 177.39 187.349 177.199C187.624 177.003 187.953 176.849 188.336 176.737C188.695 176.639 189.096 176.555 189.54 176.485C189.988 176.41 190.44 176.343 190.898 176.282C191.355 176.221 191.782 176.163 192.179 176.107L191.731 176.366C191.745 175.694 191.609 175.197 191.325 174.875C191.045 174.553 190.559 174.392 189.869 174.392C189.411 174.392 189.01 174.497 188.665 174.707C188.324 174.912 188.084 175.248 187.944 175.715L186.761 175.358C186.943 174.695 187.295 174.175 187.818 173.797C188.34 173.419 189.029 173.23 189.883 173.23C190.569 173.23 191.157 173.354 191.647 173.601C192.141 173.844 192.496 174.212 192.711 174.707C192.818 174.94 192.886 175.195 192.914 175.47C192.942 175.741 192.956 176.025 192.956 176.324V181H191.85V179.187L192.109 179.355C191.824 179.966 191.425 180.428 190.912 180.741C190.403 181.054 189.782 181.21 189.05 181.21ZM189.239 180.167C189.687 180.167 190.074 180.088 190.401 179.929C190.732 179.766 190.998 179.553 191.199 179.292C191.399 179.026 191.53 178.737 191.591 178.424C191.661 178.191 191.698 177.932 191.703 177.647C191.712 177.358 191.717 177.136 191.717 176.982L192.151 177.171C191.745 177.227 191.346 177.281 190.954 177.332C190.562 177.383 190.191 177.439 189.841 177.5C189.491 177.556 189.176 177.624 188.896 177.703C188.69 177.768 188.497 177.852 188.315 177.955C188.137 178.058 187.993 178.191 187.881 178.354C187.773 178.513 187.72 178.711 187.72 178.949C187.72 179.154 187.771 179.35 187.874 179.537C187.981 179.724 188.144 179.875 188.364 179.992C188.588 180.109 188.879 180.167 189.239 180.167ZM198.828 184.36L200.291 180.384L200.312 181.56L197.008 173.44H198.317L200.907 179.971H200.459L202.888 173.44H204.155L200.039 184.36H198.828ZM211.786 181.21C211.077 181.21 210.48 181.035 209.994 180.685C209.509 180.33 209.14 179.852 208.888 179.25C208.641 178.643 208.517 177.964 208.517 177.213C208.517 176.452 208.641 175.771 208.888 175.169C209.14 174.567 209.509 174.093 209.994 173.748C210.484 173.403 211.084 173.23 211.793 173.23C212.493 173.23 213.095 173.405 213.599 173.755C214.108 174.1 214.498 174.574 214.768 175.176C215.039 175.778 215.174 176.457 215.174 177.213C215.174 177.969 215.039 178.648 214.768 179.25C214.498 179.852 214.108 180.33 213.599 180.685C213.095 181.035 212.491 181.21 211.786 181.21ZM208.307 184.36V173.44H209.42V179.005H209.56V184.36H208.307ZM211.632 180.069C212.132 180.069 212.545 179.943 212.871 179.691C213.198 179.439 213.443 179.098 213.606 178.669C213.77 178.235 213.851 177.75 213.851 177.213C213.851 176.681 213.77 176.2 213.606 175.771C213.448 175.342 213.2 175.001 212.864 174.749C212.533 174.497 212.111 174.371 211.597 174.371C211.107 174.371 210.701 174.492 210.379 174.735C210.057 174.973 209.817 175.307 209.658 175.736C209.5 176.161 209.42 176.653 209.42 177.213C209.42 177.764 209.497 178.256 209.651 178.69C209.81 179.119 210.053 179.458 210.379 179.705C210.706 179.948 211.124 180.069 211.632 180.069ZM216.809 181V173.44H217.922V175.267L217.74 175.029C217.829 174.796 217.943 174.581 218.083 174.385C218.228 174.189 218.389 174.028 218.566 173.902C218.762 173.743 218.984 173.622 219.231 173.538C219.478 173.454 219.73 173.405 219.987 173.391C220.244 173.372 220.484 173.389 220.708 173.44V174.609C220.447 174.539 220.16 174.52 219.847 174.553C219.534 174.586 219.245 174.7 218.979 174.896C218.736 175.069 218.547 175.279 218.412 175.526C218.281 175.773 218.19 176.042 218.139 176.331C218.088 176.616 218.062 176.907 218.062 177.206V181H216.809ZM225.215 181.21C224.464 181.21 223.815 181.04 223.269 180.699C222.728 180.358 222.31 179.887 222.016 179.285C221.722 178.683 221.575 177.992 221.575 177.213C221.575 176.42 221.724 175.724 222.023 175.127C222.322 174.53 222.744 174.065 223.29 173.734C223.836 173.398 224.478 173.23 225.215 173.23C225.971 173.23 226.622 173.4 227.168 173.741C227.714 174.077 228.132 174.546 228.421 175.148C228.715 175.745 228.862 176.434 228.862 177.213C228.862 178.002 228.715 178.697 228.421 179.299C228.127 179.896 227.707 180.365 227.161 180.706C226.615 181.042 225.966 181.21 225.215 181.21ZM225.215 180.027C225.999 180.027 226.582 179.766 226.965 179.243C227.348 178.72 227.539 178.044 227.539 177.213C227.539 176.359 227.345 175.68 226.958 175.176C226.571 174.667 225.99 174.413 225.215 174.413C224.688 174.413 224.254 174.532 223.913 174.77C223.572 175.008 223.318 175.337 223.15 175.757C222.982 176.177 222.898 176.662 222.898 177.213C222.898 178.062 223.094 178.744 223.486 179.257C223.878 179.77 224.454 180.027 225.215 180.027ZM233.975 181.21C233.266 181.21 232.668 181.035 232.183 180.685C231.698 180.33 231.329 179.852 231.077 179.25C230.83 178.643 230.706 177.964 230.706 177.213C230.706 176.452 230.83 175.771 231.077 175.169C231.329 174.567 231.698 174.093 232.183 173.748C232.673 173.403 233.273 173.23 233.982 173.23C234.682 173.23 235.284 173.405 235.788 173.755C236.297 174.1 236.686 174.574 236.957 175.176C237.228 175.778 237.363 176.457 237.363 177.213C237.363 177.969 237.228 178.648 236.957 179.25C236.686 179.852 236.297 180.33 235.788 180.685C235.284 181.035 234.68 181.21 233.975 181.21ZM230.496 184.36V173.44H231.609V179.005H231.749V184.36H230.496ZM233.821 180.069C234.32 180.069 234.733 179.943 235.06 179.691C235.387 179.439 235.632 179.098 235.795 178.669C235.958 178.235 236.04 177.75 236.04 177.213C236.04 176.681 235.958 176.2 235.795 175.771C235.636 175.342 235.389 175.001 235.053 174.749C234.722 174.497 234.299 174.371 233.786 174.371C233.296 174.371 232.89 174.492 232.568 174.735C232.246 174.973 232.006 175.307 231.847 175.736C231.688 176.161 231.609 176.653 231.609 177.213C231.609 177.764 231.686 178.256 231.84 178.69C231.999 179.119 232.241 179.458 232.568 179.705C232.895 179.948 233.312 180.069 233.821 180.069ZM242.729 172.285H241.714L242.631 169.975H243.646L242.729 172.285ZM242.218 181.21C241.466 181.21 240.818 181.04 240.272 180.699C239.73 180.358 239.313 179.887 239.019 179.285C238.725 178.683 238.578 177.992 238.578 177.213C238.578 176.42 238.727 175.724 239.026 175.127C239.324 174.53 239.747 174.065 240.293 173.734C240.839 173.398 241.48 173.23 242.218 173.23C242.974 173.23 243.625 173.4 244.171 173.741C244.717 174.077 245.134 174.546 245.424 175.148C245.718 175.745 245.865 176.434 245.865 177.213C245.865 178.002 245.718 178.697 245.424 179.299C245.13 179.896 244.71 180.365 244.164 180.706C243.618 181.042 242.969 181.21 242.218 181.21ZM242.218 180.027C243.002 180.027 243.585 179.766 243.968 179.243C244.35 178.72 244.542 178.044 244.542 177.213C244.542 176.359 244.348 175.68 243.961 175.176C243.573 174.667 242.992 174.413 242.218 174.413C241.69 174.413 241.256 174.532 240.916 174.77C240.575 175.008 240.321 175.337 240.153 175.757C239.985 176.177 239.901 176.662 239.901 177.213C239.901 178.062 240.097 178.744 240.489 179.257C240.881 179.77 241.457 180.027 242.218 180.027ZM250.252 181.203C249.352 181.203 248.612 181.007 248.033 180.615C247.459 180.218 247.107 179.665 246.976 178.956L248.25 178.753C248.353 179.164 248.589 179.49 248.957 179.733C249.326 179.971 249.783 180.09 250.329 180.09C250.847 180.09 251.253 179.983 251.547 179.768C251.841 179.553 251.988 179.262 251.988 178.893C251.988 178.678 251.939 178.506 251.841 178.375C251.743 178.24 251.54 178.114 251.232 177.997C250.929 177.88 250.469 177.74 249.853 177.577C249.186 177.4 248.661 177.215 248.278 177.024C247.896 176.833 247.623 176.611 247.459 176.359C247.296 176.107 247.214 175.801 247.214 175.442C247.214 174.999 247.336 174.611 247.578 174.28C247.821 173.944 248.159 173.685 248.593 173.503C249.032 173.321 249.541 173.23 250.119 173.23C250.693 173.23 251.207 173.321 251.659 173.503C252.112 173.685 252.476 173.944 252.751 174.28C253.031 174.611 253.197 174.999 253.248 175.442L251.974 175.673C251.914 175.267 251.718 174.947 251.386 174.714C251.06 174.481 250.637 174.357 250.119 174.343C249.629 174.324 249.23 174.411 248.922 174.602C248.619 174.793 248.467 175.052 248.467 175.379C248.467 175.561 248.523 175.717 248.635 175.848C248.752 175.979 248.964 176.102 249.272 176.219C249.585 176.336 250.038 176.469 250.63 176.618C251.298 176.786 251.823 176.97 252.205 177.171C252.593 177.367 252.868 177.6 253.031 177.871C253.195 178.137 253.276 178.466 253.276 178.858C253.276 179.586 253.008 180.16 252.471 180.58C251.935 180.995 251.195 181.203 250.252 181.203ZM255.06 172.103V170.815H256.306V172.103H255.06ZM255.06 181V173.44H256.306V181H255.06ZM262.728 181C262.28 181.089 261.836 181.124 261.398 181.105C260.964 181.091 260.576 181.005 260.236 180.846C259.895 180.683 259.636 180.431 259.459 180.09C259.309 179.791 259.228 179.49 259.214 179.187C259.204 178.879 259.2 178.531 259.2 178.144V171.34H260.446V178.088C260.446 178.396 260.448 178.66 260.453 178.879C260.462 179.098 260.511 179.287 260.6 179.446C260.768 179.745 261.034 179.92 261.398 179.971C261.766 180.022 262.21 180.008 262.728 179.929V181ZM257.667 174.469V173.44H262.728V174.469H257.667ZM267.268 181.21C266.517 181.21 265.868 181.04 265.322 180.699C264.781 180.358 264.363 179.887 264.069 179.285C263.775 178.683 263.628 177.992 263.628 177.213C263.628 176.42 263.777 175.724 264.076 175.127C264.375 174.53 264.797 174.065 265.343 173.734C265.889 173.398 266.531 173.23 267.268 173.23C268.024 173.23 268.675 173.4 269.221 173.741C269.767 174.077 270.185 174.546 270.474 175.148C270.768 175.745 270.915 176.434 270.915 177.213C270.915 178.002 270.768 178.697 270.474 179.299C270.18 179.896 269.76 180.365 269.214 180.706C268.668 181.042 268.019 181.21 267.268 181.21ZM267.268 180.027C268.052 180.027 268.635 179.766 269.018 179.243C269.401 178.72 269.592 178.044 269.592 177.213C269.592 176.359 269.398 175.68 269.011 175.176C268.624 174.667 268.043 174.413 267.268 174.413C266.741 174.413 266.307 174.532 265.966 174.77C265.625 175.008 265.371 175.337 265.203 175.757C265.035 176.177 264.951 176.662 264.951 177.213C264.951 178.062 265.147 178.744 265.539 179.257C265.931 179.77 266.507 180.027 267.268 180.027ZM272.507 181V179.628H273.879V181H272.507Z" fill="white" fill-opacity="0.9"/>
</svg>
