<svg width="320" height="187" viewBox="0 0 320 187" fill="none" xmlns="http://www.w3.org/2000/svg">
<path d="M62.9557 37.8H60.9877L62.7037 33.6H64.6717L62.9557 37.8ZM62.0797 57.36C60.7277 57.36 59.5317 57.084 58.4917 56.532C57.4597 55.972 56.6517 55.192 56.0677 54.192C55.4837 53.184 55.1917 52 55.1917 50.64V39.732L57.7357 39.72V50.508C57.7357 51.244 57.8597 51.892 58.1077 52.452C58.3557 53.012 58.6877 53.48 59.1037 53.856C59.5197 54.232 59.9837 54.516 60.4957 54.708C61.0157 54.9 61.5437 54.996 62.0797 54.996C62.6237 54.996 63.1517 54.9 63.6637 54.708C64.1837 54.508 64.6517 54.22 65.0677 53.844C65.4837 53.468 65.8117 53 66.0517 52.44C66.2997 51.88 66.4237 51.236 66.4237 50.508V39.72H68.9677V50.64C68.9677 51.992 68.6757 53.172 68.0917 54.18C67.5077 55.188 66.6957 55.972 65.6557 56.532C64.6237 57.084 63.4317 57.36 62.0797 57.36ZM72.5645 57V39.36H75.0725V57H72.5645ZM86.0921 57C85.2761 57.16 84.4761 57.228 83.6921 57.204C82.9081 57.18 82.2081 57.028 81.5921 56.748C80.9761 56.468 80.5121 56.028 80.2001 55.428C79.9201 54.892 79.7681 54.348 79.7441 53.796C79.7281 53.236 79.7201 52.604 79.7201 51.9V40.44H82.2401V51.78C82.2401 52.3 82.2441 52.752 82.2521 53.136C82.2681 53.52 82.3521 53.844 82.5041 54.108C82.7921 54.604 83.2481 54.888 83.8721 54.96C84.5041 55.024 85.2441 54.996 86.0921 54.876V57ZM77.2361 46.056V44.04H86.0921V46.056H77.2361ZM89.0645 41.916V39.48H91.5725V41.916H89.0645ZM89.0645 57V44.04H91.5725V57H89.0645ZM110.704 57L110.716 48.924C110.716 47.988 110.476 47.26 109.996 46.74C109.516 46.212 108.884 45.948 108.1 45.948C107.62 45.948 107.18 46.06 106.78 46.284C106.388 46.5 106.068 46.828 105.82 47.268C105.58 47.7 105.46 48.244 105.46 48.9L104.248 48.288C104.232 47.376 104.424 46.576 104.824 45.888C105.232 45.2 105.784 44.668 106.48 44.292C107.176 43.908 107.956 43.716 108.82 43.716C110.22 43.716 111.304 44.136 112.072 44.976C112.84 45.816 113.224 46.932 113.224 48.324L113.212 57H110.704ZM95.1641 57V44.04H97.3961V47.784H97.6841V57H95.1641ZM102.94 57L102.952 48.972C102.952 48.028 102.712 47.288 102.232 46.752C101.76 46.216 101.124 45.948 100.324 45.948C99.5321 45.948 98.8921 46.22 98.4041 46.764C97.9241 47.308 97.6841 48.02 97.6841 48.9L96.4841 48.132C96.4841 47.284 96.6881 46.528 97.0961 45.864C97.5041 45.2 98.0561 44.676 98.7521 44.292C99.4481 43.908 100.236 43.716 101.116 43.716C102.036 43.716 102.82 43.912 103.468 44.304C104.116 44.688 104.608 45.228 104.944 45.924C105.288 46.62 105.46 47.428 105.46 48.348L105.448 57H102.94ZM120 57.36C119.04 57.36 118.236 57.184 117.588 56.832C116.94 56.472 116.448 56 116.112 55.416C115.784 54.824 115.62 54.176 115.62 53.472C115.62 52.816 115.736 52.24 115.968 51.744C116.2 51.248 116.544 50.828 117 50.484C117.456 50.132 118.016 49.848 118.68 49.632C119.256 49.464 119.908 49.316 120.636 49.188C121.364 49.06 122.128 48.94 122.928 48.828C123.736 48.716 124.536 48.604 125.328 48.492L124.416 48.996C124.432 47.98 124.216 47.228 123.768 46.74C123.328 46.244 122.568 45.996 121.488 45.996C120.808 45.996 120.184 46.156 119.616 46.476C119.048 46.788 118.652 47.308 118.428 48.036L116.088 47.316C116.408 46.204 117.016 45.32 117.912 44.664C118.816 44.008 120.016 43.68 121.512 43.68C122.672 43.68 123.68 43.88 124.536 44.28C125.4 44.672 126.032 45.296 126.432 46.152C126.64 46.576 126.768 47.024 126.816 47.496C126.864 47.968 126.888 48.476 126.888 49.02V57H124.668V54.036L125.1 54.42C124.564 55.412 123.88 56.152 123.048 56.64C122.224 57.12 121.208 57.36 120 57.36ZM120.444 55.308C121.156 55.308 121.768 55.184 122.28 54.936C122.792 54.68 123.204 54.356 123.516 53.964C123.828 53.572 124.032 53.164 124.128 52.74C124.264 52.356 124.34 51.924 124.356 51.444C124.38 50.964 124.392 50.58 124.392 50.292L125.208 50.592C124.416 50.712 123.696 50.82 123.048 50.916C122.4 51.012 121.812 51.108 121.284 51.204C120.764 51.292 120.3 51.4 119.892 51.528C119.548 51.648 119.24 51.792 118.968 51.96C118.704 52.128 118.492 52.332 118.332 52.572C118.18 52.812 118.104 53.104 118.104 53.448C118.104 53.784 118.188 54.096 118.356 54.384C118.524 54.664 118.78 54.888 119.124 55.056C119.468 55.224 119.908 55.308 120.444 55.308ZM140.557 57.36C139.269 57.36 138.137 57.08 137.161 56.52C136.193 55.952 135.437 55.164 134.893 54.156C134.357 53.14 134.089 51.964 134.089 50.628C134.089 49.212 134.353 47.984 134.881 46.944C135.417 45.904 136.161 45.1 137.113 44.532C138.065 43.964 139.173 43.68 140.437 43.68C141.757 43.68 142.881 43.988 143.809 44.604C144.737 45.212 145.429 46.08 145.885 47.208C146.349 48.336 146.533 49.676 146.437 51.228H143.929V50.316C143.913 48.812 143.625 47.7 143.065 46.98C142.513 46.26 141.669 45.9 140.533 45.9C139.277 45.9 138.333 46.296 137.701 47.088C137.069 47.88 136.753 49.024 136.753 50.52C136.753 51.944 137.069 53.048 137.701 53.832C138.333 54.608 139.245 54.996 140.437 54.996C141.221 54.996 141.897 54.82 142.465 54.468C143.041 54.108 143.489 53.596 143.809 52.932L146.269 53.712C145.765 54.872 145.001 55.772 143.977 56.412C142.953 57.044 141.813 57.36 140.557 57.36ZM135.937 51.228V49.272H145.189V51.228H135.937ZM147.22 57L152.068 50.448L147.328 44.04H150.304L153.532 48.492L156.724 44.04H159.7L154.96 50.448L159.82 57H156.832L153.532 52.404L150.208 57H147.22ZM167.823 57.36C166.583 57.36 165.543 57.06 164.703 56.46C163.863 55.852 163.227 55.032 162.795 54C162.363 52.968 162.147 51.804 162.147 50.508C162.147 49.212 162.359 48.048 162.783 47.016C163.215 45.984 163.847 45.172 164.679 44.58C165.519 43.98 166.551 43.68 167.775 43.68C168.991 43.68 170.039 43.98 170.919 44.58C171.807 45.172 172.491 45.984 172.971 47.016C173.451 48.04 173.691 49.204 173.691 50.508C173.691 51.804 173.451 52.972 172.971 54.012C172.499 55.044 171.823 55.86 170.943 56.46C170.071 57.06 169.031 57.36 167.823 57.36ZM161.727 62.76V44.04H163.959V53.364H164.247V62.76H161.727ZM167.475 55.092C168.275 55.092 168.935 54.888 169.455 54.48C169.983 54.072 170.375 53.524 170.631 52.836C170.895 52.14 171.027 51.364 171.027 50.508C171.027 49.66 170.895 48.892 170.631 48.204C170.375 47.516 169.979 46.968 169.443 46.56C168.907 46.152 168.223 45.948 167.391 45.948C166.607 45.948 165.959 46.14 165.447 46.524C164.943 46.908 164.567 47.444 164.319 48.132C164.079 48.82 163.959 49.612 163.959 50.508C163.959 51.404 164.079 52.196 164.319 52.884C164.559 53.572 164.939 54.112 165.459 54.504C165.979 54.896 166.651 55.092 167.475 55.092ZM182.088 57.36C180.8 57.36 179.668 57.08 178.692 56.52C177.724 55.952 176.968 55.164 176.424 54.156C175.888 53.14 175.62 51.964 175.62 50.628C175.62 49.212 175.884 47.984 176.412 46.944C176.948 45.904 177.692 45.1 178.644 44.532C179.596 43.964 180.704 43.68 181.968 43.68C183.288 43.68 184.412 43.988 185.34 44.604C186.268 45.212 186.96 46.08 187.416 47.208C187.88 48.336 188.064 49.676 187.968 51.228H185.46V50.316C185.444 48.812 185.156 47.7 184.596 46.98C184.044 46.26 183.2 45.9 182.064 45.9C180.808 45.9 179.864 46.296 179.232 47.088C178.6 47.88 178.284 49.024 178.284 50.52C178.284 51.944 178.6 53.048 179.232 53.832C179.864 54.608 180.776 54.996 181.968 54.996C182.752 54.996 183.428 54.82 183.996 54.468C184.572 54.108 185.02 53.596 185.34 52.932L187.8 53.712C187.296 54.872 186.532 55.772 185.508 56.412C184.484 57.044 183.344 57.36 182.088 57.36ZM177.468 51.228V49.272H186.72V51.228H177.468ZM190.66 57V44.04H192.892V47.184L192.58 46.776C192.74 46.36 192.948 45.98 193.204 45.636C193.46 45.284 193.756 44.996 194.092 44.772C194.42 44.532 194.784 44.348 195.184 44.22C195.592 44.084 196.008 44.004 196.432 43.98C196.856 43.948 197.264 43.968 197.656 44.04V46.392C197.232 46.28 196.76 46.248 196.24 46.296C195.728 46.344 195.256 46.508 194.824 46.788C194.416 47.052 194.092 47.372 193.852 47.748C193.62 48.124 193.452 48.544 193.348 49.008C193.244 49.464 193.192 49.948 193.192 50.46V57H190.66ZM200.182 41.916V39.48H202.69V41.916H200.182ZM200.182 57V44.04H202.69V57H200.182ZM212.041 57.36C210.753 57.36 209.621 57.08 208.645 56.52C207.677 55.952 206.921 55.164 206.377 54.156C205.841 53.14 205.573 51.964 205.573 50.628C205.573 49.212 205.837 47.984 206.365 46.944C206.901 45.904 207.645 45.1 208.597 44.532C209.549 43.964 210.657 43.68 211.921 43.68C213.241 43.68 214.365 43.988 215.293 44.604C216.221 45.212 216.913 46.08 217.369 47.208C217.833 48.336 218.017 49.676 217.921 51.228H215.413V50.316C215.397 48.812 215.109 47.7 214.549 46.98C213.997 46.26 213.153 45.9 212.017 45.9C210.761 45.9 209.817 46.296 209.185 47.088C208.553 47.88 208.237 49.024 208.237 50.52C208.237 51.944 208.553 53.048 209.185 53.832C209.817 54.608 210.729 54.996 211.921 54.996C212.705 54.996 213.381 54.82 213.949 54.468C214.525 54.108 214.973 53.596 215.293 52.932L217.753 53.712C217.249 54.872 216.485 55.772 215.461 56.412C214.437 57.044 213.297 57.36 212.041 57.36ZM207.421 51.228V49.272H216.673V51.228H207.421ZM229.358 57V50.628C229.358 50.124 229.314 49.608 229.226 49.08C229.146 48.544 228.986 48.048 228.746 47.592C228.514 47.136 228.182 46.768 227.75 46.488C227.326 46.208 226.77 46.068 226.082 46.068C225.634 46.068 225.21 46.144 224.81 46.296C224.41 46.44 224.058 46.676 223.754 47.004C223.458 47.332 223.222 47.764 223.046 48.3C222.878 48.836 222.794 49.488 222.794 50.256L221.234 49.668C221.234 48.492 221.454 47.456 221.894 46.56C222.334 45.656 222.966 44.952 223.79 44.448C224.614 43.944 225.61 43.692 226.778 43.692C227.674 43.692 228.426 43.836 229.034 44.124C229.642 44.412 230.134 44.792 230.51 45.264C230.894 45.728 231.186 46.236 231.386 46.788C231.586 47.34 231.722 47.88 231.794 48.408C231.866 48.936 231.902 49.4 231.902 49.8V57H229.358ZM220.25 57V44.04H222.494V47.784H222.794V57H220.25ZM240.408 57.36C239.08 57.36 237.952 57.064 237.024 56.472C236.096 55.88 235.384 55.068 234.888 54.036C234.4 53.004 234.152 51.832 234.144 50.52C234.152 49.184 234.408 48.004 234.912 46.98C235.416 45.948 236.136 45.14 237.072 44.556C238.008 43.972 239.132 43.68 240.444 43.68C241.86 43.68 243.068 44.032 244.068 44.736C245.076 45.44 245.74 46.404 246.06 47.628L243.564 48.348C243.316 47.62 242.908 47.056 242.34 46.656C241.78 46.248 241.136 46.044 240.408 46.044C239.584 46.044 238.908 46.24 238.38 46.632C237.852 47.016 237.46 47.544 237.204 48.216C236.948 48.888 236.816 49.656 236.808 50.52C236.816 51.856 237.12 52.936 237.72 53.76C238.328 54.584 239.224 54.996 240.408 54.996C241.216 54.996 241.868 54.812 242.364 54.444C242.868 54.068 243.252 53.532 243.516 52.836L246.06 53.436C245.636 54.7 244.936 55.672 243.96 56.352C242.984 57.024 241.8 57.36 240.408 57.36ZM248.393 41.916V39.48H250.901V41.916H248.393ZM248.393 57V44.04H250.901V57H248.393ZM258.164 57.36C257.204 57.36 256.4 57.184 255.752 56.832C255.104 56.472 254.612 56 254.276 55.416C253.948 54.824 253.784 54.176 253.784 53.472C253.784 52.816 253.9 52.24 254.132 51.744C254.364 51.248 254.708 50.828 255.164 50.484C255.62 50.132 256.18 49.848 256.844 49.632C257.42 49.464 258.072 49.316 258.8 49.188C259.528 49.06 260.292 48.94 261.092 48.828C261.9 48.716 262.7 48.604 263.492 48.492L262.58 48.996C262.596 47.98 262.38 47.228 261.932 46.74C261.492 46.244 260.732 45.996 259.652 45.996C258.972 45.996 258.348 46.156 257.78 46.476C257.212 46.788 256.816 47.308 256.592 48.036L254.252 47.316C254.572 46.204 255.18 45.32 256.076 44.664C256.98 44.008 258.18 43.68 259.676 43.68C260.836 43.68 261.844 43.88 262.7 44.28C263.564 44.672 264.196 45.296 264.596 46.152C264.804 46.576 264.932 47.024 264.98 47.496C265.028 47.968 265.052 48.476 265.052 49.02V57H262.832V54.036L263.264 54.42C262.728 55.412 262.044 56.152 261.212 56.64C260.388 57.12 259.372 57.36 258.164 57.36ZM258.608 55.308C259.32 55.308 259.932 55.184 260.444 54.936C260.956 54.68 261.368 54.356 261.68 53.964C261.992 53.572 262.196 53.164 262.292 52.74C262.428 52.356 262.504 51.924 262.52 51.444C262.544 50.964 262.556 50.58 262.556 50.292L263.372 50.592C262.58 50.712 261.86 50.82 261.212 50.916C260.564 51.012 259.976 51.108 259.448 51.204C258.928 51.292 258.464 51.4 258.056 51.528C257.712 51.648 257.404 51.792 257.132 51.96C256.868 52.128 256.656 52.332 256.496 52.572C256.344 52.812 256.268 53.104 256.268 53.448C256.268 53.784 256.352 54.096 256.52 54.384C256.688 54.664 256.944 54.888 257.288 55.056C257.632 55.224 258.072 55.308 258.608 55.308ZM122.838 89V71.36H125.346V89H122.838ZM132.61 89.36C131.65 89.36 130.846 89.184 130.198 88.832C129.55 88.472 129.058 88 128.722 87.416C128.394 86.824 128.23 86.176 128.23 85.472C128.23 84.816 128.346 84.24 128.578 83.744C128.81 83.248 129.154 82.828 129.61 82.484C130.066 82.132 130.626 81.848 131.29 81.632C131.866 81.464 132.518 81.316 133.246 81.188C133.974 81.06 134.738 80.94 135.538 80.828C136.346 80.716 137.146 80.604 137.938 80.492L137.026 80.996C137.042 79.98 136.826 79.228 136.378 78.74C135.938 78.244 135.178 77.996 134.098 77.996C133.418 77.996 132.794 78.156 132.226 78.476C131.658 78.788 131.262 79.308 131.038 80.036L128.698 79.316C129.018 78.204 129.626 77.32 130.522 76.664C131.426 76.008 132.626 75.68 134.122 75.68C135.282 75.68 136.29 75.88 137.146 76.28C138.01 76.672 138.642 77.296 139.042 78.152C139.25 78.576 139.378 79.024 139.426 79.496C139.474 79.968 139.498 80.476 139.498 81.02V89H137.278V86.036L137.71 86.42C137.174 87.412 136.49 88.152 135.658 88.64C134.834 89.12 133.818 89.36 132.61 89.36ZM133.054 87.308C133.766 87.308 134.378 87.184 134.89 86.936C135.402 86.68 135.814 86.356 136.126 85.964C136.438 85.572 136.642 85.164 136.738 84.74C136.874 84.356 136.95 83.924 136.966 83.444C136.99 82.964 137.002 82.58 137.002 82.292L137.818 82.592C137.026 82.712 136.306 82.82 135.658 82.916C135.01 83.012 134.422 83.108 133.894 83.204C133.374 83.292 132.91 83.4 132.502 83.528C132.158 83.648 131.85 83.792 131.578 83.96C131.314 84.128 131.102 84.332 130.942 84.572C130.79 84.812 130.714 85.104 130.714 85.448C130.714 85.784 130.798 86.096 130.966 86.384C131.134 86.664 131.39 86.888 131.734 87.056C132.078 87.224 132.518 87.308 133.054 87.308ZM148.698 89.36C147.458 89.36 146.418 89.06 145.578 88.46C144.738 87.852 144.102 87.032 143.67 86C143.238 84.968 143.022 83.804 143.022 82.508C143.022 81.212 143.234 80.048 143.658 79.016C144.09 77.984 144.722 77.172 145.554 76.58C146.394 75.98 147.426 75.68 148.65 75.68C149.866 75.68 150.914 75.98 151.794 76.58C152.682 77.172 153.366 77.984 153.846 79.016C154.326 80.04 154.566 81.204 154.566 82.508C154.566 83.804 154.326 84.972 153.846 86.012C153.374 87.044 152.698 87.86 151.818 88.46C150.946 89.06 149.906 89.36 148.698 89.36ZM142.602 89V71.72H145.122V79.676H144.834V89H142.602ZM148.35 87.092C149.15 87.092 149.81 86.888 150.33 86.48C150.858 86.072 151.25 85.524 151.506 84.836C151.77 84.14 151.902 83.364 151.902 82.508C151.902 81.66 151.77 80.892 151.506 80.204C151.25 79.516 150.854 78.968 150.318 78.56C149.782 78.152 149.098 77.948 148.266 77.948C147.482 77.948 146.834 78.14 146.322 78.524C145.818 78.908 145.442 79.444 145.194 80.132C144.954 80.82 144.834 81.612 144.834 82.508C144.834 83.404 144.954 84.196 145.194 84.884C145.434 85.572 145.814 86.112 146.334 86.504C146.854 86.896 147.526 87.092 148.35 87.092ZM162.843 89.36C161.547 89.36 160.423 89.068 159.471 88.484C158.519 87.9 157.783 87.096 157.263 86.072C156.751 85.04 156.495 83.852 156.495 82.508C156.495 81.156 156.759 79.968 157.287 78.944C157.815 77.912 158.555 77.112 159.507 76.544C160.459 75.968 161.571 75.68 162.843 75.68C164.139 75.68 165.263 75.972 166.215 76.556C167.167 77.14 167.903 77.944 168.423 78.968C168.943 79.992 169.203 81.172 169.203 82.508C169.203 83.86 168.939 85.052 168.411 86.084C167.891 87.108 167.155 87.912 166.203 88.496C165.251 89.072 164.131 89.36 162.843 89.36ZM162.843 86.996C164.083 86.996 165.007 86.58 165.615 85.748C166.231 84.908 166.539 83.828 166.539 82.508C166.539 81.156 166.227 80.076 165.603 79.268C164.987 78.452 164.067 78.044 162.843 78.044C162.003 78.044 161.311 78.236 160.767 78.62C160.223 78.996 159.819 79.52 159.555 80.192C159.291 80.856 159.159 81.628 159.159 82.508C159.159 83.868 159.471 84.956 160.095 85.772C160.719 86.588 161.635 86.996 162.843 86.996ZM171.84 89V76.04H174.072V79.184L173.76 78.776C173.92 78.36 174.128 77.98 174.384 77.636C174.64 77.284 174.936 76.996 175.272 76.772C175.6 76.532 175.964 76.348 176.364 76.22C176.772 76.084 177.188 76.004 177.612 75.98C178.036 75.948 178.444 75.968 178.836 76.04V78.392C178.412 78.28 177.94 78.248 177.42 78.296C176.908 78.344 176.436 78.508 176.004 78.788C175.596 79.052 175.272 79.372 175.032 79.748C174.8 80.124 174.632 80.544 174.528 81.008C174.424 81.464 174.372 81.948 174.372 82.46V89H171.84ZM184.406 89.36C183.446 89.36 182.642 89.184 181.994 88.832C181.346 88.472 180.854 88 180.518 87.416C180.19 86.824 180.026 86.176 180.026 85.472C180.026 84.816 180.142 84.24 180.374 83.744C180.606 83.248 180.95 82.828 181.406 82.484C181.862 82.132 182.422 81.848 183.086 81.632C183.662 81.464 184.314 81.316 185.042 81.188C185.77 81.06 186.534 80.94 187.334 80.828C188.142 80.716 188.942 80.604 189.734 80.492L188.822 80.996C188.838 79.98 188.622 79.228 188.174 78.74C187.734 78.244 186.974 77.996 185.894 77.996C185.214 77.996 184.59 78.156 184.022 78.476C183.454 78.788 183.058 79.308 182.834 80.036L180.494 79.316C180.814 78.204 181.422 77.32 182.318 76.664C183.222 76.008 184.422 75.68 185.918 75.68C187.078 75.68 188.086 75.88 188.942 76.28C189.806 76.672 190.438 77.296 190.838 78.152C191.046 78.576 191.174 79.024 191.222 79.496C191.27 79.968 191.294 80.476 191.294 81.02V89H189.074V86.036L189.506 86.42C188.97 87.412 188.286 88.152 187.454 88.64C186.63 89.12 185.614 89.36 184.406 89.36ZM184.85 87.308C185.562 87.308 186.174 87.184 186.686 86.936C187.198 86.68 187.61 86.356 187.922 85.964C188.234 85.572 188.438 85.164 188.534 84.74C188.67 84.356 188.746 83.924 188.762 83.444C188.786 82.964 188.798 82.58 188.798 82.292L189.614 82.592C188.822 82.712 188.102 82.82 187.454 82.916C186.806 83.012 186.218 83.108 185.69 83.204C185.17 83.292 184.706 83.4 184.298 83.528C183.954 83.648 183.646 83.792 183.374 83.96C183.11 84.128 182.898 84.332 182.738 84.572C182.586 84.812 182.51 85.104 182.51 85.448C182.51 85.784 182.594 86.096 182.762 86.384C182.93 86.664 183.186 86.888 183.53 87.056C183.874 87.224 184.314 87.308 184.85 87.308ZM194.65 89V71.36H197.158V89H194.65Z" fill="white"/>
<path d="M16 119.5L141.5 119.5" stroke="#3CBAE3" stroke-width="2"/>
<path d="M153.436 115.418L162.877 120.155L164.526 119.328C165.802 118.687 166.564 117.45 166.564 116.018C166.564 114.586 165.802 113.349 164.526 112.709L153.436 107.144V115.418ZM162.877 122.328L155.474 126.042C154.217 126.673 153.436 127.941 153.436 129.352C153.436 130.644 154.09 131.82 155.185 132.499C156.28 133.179 157.621 133.24 158.772 132.661L164.526 129.774C165.802 129.133 166.564 127.897 166.564 126.465C166.564 125.033 165.802 123.795 164.526 123.155L162.877 122.328ZM157.12 135C156.095 135 155.076 134.716 154.167 134.152C152.497 133.116 151.5 131.322 151.5 129.352C151.5 127.201 152.691 125.267 154.608 124.305L160.712 121.241L151.5 116.618V104L165.392 110.971C167.309 111.933 168.5 113.867 168.5 116.018C168.5 118.17 167.309 120.104 165.392 121.066L165.042 121.241L165.392 121.417C167.309 122.379 168.5 124.313 168.5 126.465C168.5 128.616 167.309 130.55 165.392 131.512L159.638 134.399C158.837 134.801 157.977 135 157.12 135Z" fill="#3CBAE3"/>
<path d="M178.5 119.5L304 119.5" stroke="#3CBAE3" stroke-width="2"/>
<path d="M46.1226 159V148.92H52.4926V150.103H47.3686V153.26H51.6526V154.443H47.3686V157.817H52.4926V159H46.1226ZM53.4353 159L56.3263 155.178L53.4983 151.44H54.9823L57.0543 154.212L59.1053 151.44H60.5893L57.7613 155.178L60.6593 159H59.1683L57.0543 156.144L54.9263 159H53.4353ZM65.3532 159.21C64.6438 159.21 64.0465 159.035 63.5612 158.685C63.0758 158.33 62.7072 157.852 62.4552 157.25C62.2078 156.643 62.0842 155.964 62.0842 155.213C62.0842 154.452 62.2078 153.771 62.4552 153.169C62.7072 152.567 63.0758 152.093 63.5612 151.748C64.0512 151.403 64.6508 151.23 65.3602 151.23C66.0602 151.23 66.6622 151.405 67.1662 151.755C67.6748 152.1 68.0645 152.574 68.3352 153.176C68.6058 153.778 68.7412 154.457 68.7412 155.213C68.7412 155.969 68.6058 156.648 68.3352 157.25C68.0645 157.852 67.6748 158.33 67.1662 158.685C66.6622 159.035 66.0578 159.21 65.3532 159.21ZM61.8742 162.36V151.44H62.9872V157.005H63.1272V162.36H61.8742ZM65.1992 158.069C65.6985 158.069 66.1115 157.943 66.4382 157.691C66.7648 157.439 67.0098 157.098 67.1732 156.669C67.3365 156.235 67.4182 155.75 67.4182 155.213C67.4182 154.681 67.3365 154.2 67.1732 153.771C67.0145 153.342 66.7672 153.001 66.4312 152.749C66.0998 152.497 65.6775 152.371 65.1642 152.371C64.6742 152.371 64.2682 152.492 63.9462 152.735C63.6242 152.973 63.3838 153.307 63.2252 153.736C63.0665 154.161 62.9872 154.653 62.9872 155.213C62.9872 155.764 63.0642 156.256 63.2182 156.69C63.3768 157.119 63.6195 157.458 63.9462 157.705C64.2728 157.948 64.6905 158.069 65.1992 158.069ZM73.6517 159.21C72.9097 159.21 72.261 159.047 71.7057 158.72C71.155 158.389 70.7257 157.929 70.4177 157.341C70.1097 156.748 69.9557 156.058 69.9557 155.269C69.9557 154.443 70.1074 153.729 70.4107 153.127C70.714 152.52 71.1364 152.054 71.6777 151.727C72.2237 151.396 72.863 151.23 73.5957 151.23C74.3564 151.23 75.0027 151.405 75.5347 151.755C76.0714 152.105 76.4727 152.604 76.7387 153.253C77.0094 153.902 77.126 154.674 77.0887 155.57H75.8287V155.122C75.8147 154.193 75.6257 153.5 75.2617 153.043C74.8977 152.581 74.3564 152.35 73.6377 152.35C72.8677 152.35 72.282 152.597 71.8807 153.092C71.4794 153.587 71.2787 154.296 71.2787 155.22C71.2787 156.111 71.4794 156.802 71.8807 157.292C72.282 157.782 72.8537 158.027 73.5957 158.027C74.095 158.027 74.529 157.913 74.8977 157.684C75.2664 157.455 75.5557 157.126 75.7657 156.697L76.9627 157.11C76.6687 157.777 76.2254 158.295 75.6327 158.664C75.0447 159.028 74.3844 159.21 73.6517 159.21ZM70.8587 155.57V154.569H76.4447V155.57H70.8587ZM78.7472 159V151.44H79.8602V153.267L79.6782 153.029C79.7669 152.796 79.8812 152.581 80.0212 152.385C80.1659 152.189 80.3269 152.028 80.5042 151.902C80.7002 151.743 80.9219 151.622 81.1692 151.538C81.4165 151.454 81.6685 151.405 81.9252 151.391C82.1819 151.372 82.4222 151.389 82.6462 151.44V152.609C82.3849 152.539 82.0979 152.52 81.7852 152.553C81.4725 152.586 81.1832 152.7 80.9172 152.896C80.6745 153.069 80.4855 153.279 80.3502 153.526C80.2195 153.773 80.1285 154.042 80.0772 154.331C80.0259 154.616 80.0002 154.907 80.0002 155.206V159H78.7472ZM84.2098 150.103V148.815H85.4558V150.103H84.2098ZM84.2098 159V151.44H85.4558V159H84.2098ZM90.9322 159.21C90.1902 159.21 89.5415 159.047 88.9862 158.72C88.4355 158.389 88.0062 157.929 87.6982 157.341C87.3902 156.748 87.2362 156.058 87.2362 155.269C87.2362 154.443 87.3878 153.729 87.6912 153.127C87.9945 152.52 88.4168 152.054 88.9582 151.727C89.5042 151.396 90.1435 151.23 90.8762 151.23C91.6368 151.23 92.2832 151.405 92.8152 151.755C93.3518 152.105 93.7532 152.604 94.0192 153.253C94.2898 153.902 94.4065 154.674 94.3692 155.57H93.1092V155.122C93.0952 154.193 92.9062 153.5 92.5422 153.043C92.1782 152.581 91.6368 152.35 90.9182 152.35C90.1482 152.35 89.5625 152.597 89.1612 153.092C88.7598 153.587 88.5592 154.296 88.5592 155.22C88.5592 156.111 88.7598 156.802 89.1612 157.292C89.5625 157.782 90.1342 158.027 90.8762 158.027C91.3755 158.027 91.8095 157.913 92.1782 157.684C92.5468 157.455 92.8362 157.126 93.0462 156.697L94.2432 157.11C93.9492 157.777 93.5058 158.295 92.9132 158.664C92.3252 159.028 91.6648 159.21 90.9322 159.21ZM88.1392 155.57V154.569H93.7252V155.57H88.1392ZM101.206 159V155.213C101.206 154.854 101.173 154.508 101.108 154.177C101.047 153.846 100.937 153.549 100.779 153.288C100.625 153.022 100.415 152.812 100.149 152.658C99.8872 152.504 99.5559 152.427 99.1546 152.427C98.8419 152.427 98.5572 152.481 98.3006 152.588C98.0486 152.691 97.8316 152.849 97.6496 153.064C97.4676 153.279 97.3252 153.549 97.2226 153.876C97.1246 154.198 97.0756 154.578 97.0756 155.017L96.2566 154.765C96.2566 154.032 96.3872 153.405 96.6486 152.882C96.9146 152.355 97.2856 151.951 97.7616 151.671C98.2422 151.386 98.8069 151.244 99.4556 151.244C99.9456 151.244 100.363 151.321 100.709 151.475C101.054 151.629 101.341 151.834 101.57 152.091C101.798 152.343 101.978 152.628 102.109 152.945C102.239 153.258 102.33 153.577 102.382 153.904C102.438 154.226 102.466 154.532 102.466 154.821V159H101.206ZM95.8156 159V151.44H96.9356V153.463H97.0756V159H95.8156ZM107.502 159.21C106.737 159.21 106.086 159.04 105.549 158.699C105.017 158.354 104.611 157.88 104.331 157.278C104.051 156.676 103.906 155.99 103.897 155.22C103.906 154.431 104.053 153.738 104.338 153.141C104.627 152.539 105.04 152.07 105.577 151.734C106.114 151.398 106.76 151.23 107.516 151.23C108.314 151.23 109 151.426 109.574 151.818C110.153 152.21 110.54 152.747 110.736 153.428L109.504 153.799C109.345 153.36 109.086 153.02 108.727 152.777C108.372 152.534 107.964 152.413 107.502 152.413C106.984 152.413 106.557 152.534 106.221 152.777C105.885 153.015 105.635 153.346 105.472 153.771C105.309 154.191 105.225 154.674 105.22 155.22C105.229 156.06 105.423 156.739 105.801 157.257C106.184 157.77 106.751 158.027 107.502 158.027C107.997 158.027 108.407 157.915 108.734 157.691C109.061 157.462 109.308 157.133 109.476 156.704L110.736 157.033C110.475 157.738 110.066 158.277 109.511 158.65C108.956 159.023 108.286 159.21 107.502 159.21ZM112.2 150.103V148.815H113.446V150.103H112.2ZM112.2 159V151.44H113.446V159H112.2ZM117.795 159.21C117.23 159.21 116.757 159.107 116.374 158.902C115.996 158.692 115.709 158.417 115.513 158.076C115.322 157.735 115.226 157.362 115.226 156.956C115.226 156.559 115.301 156.216 115.45 155.927C115.604 155.633 115.819 155.39 116.094 155.199C116.369 155.003 116.698 154.849 117.081 154.737C117.44 154.639 117.842 154.555 118.285 154.485C118.733 154.41 119.186 154.343 119.643 154.282C120.1 154.221 120.527 154.163 120.924 154.107L120.476 154.366C120.49 153.694 120.355 153.197 120.07 152.875C119.79 152.553 119.305 152.392 118.614 152.392C118.157 152.392 117.755 152.497 117.41 152.707C117.069 152.912 116.829 153.248 116.689 153.715L115.506 153.358C115.688 152.695 116.04 152.175 116.563 151.797C117.086 151.419 117.774 151.23 118.628 151.23C119.314 151.23 119.902 151.354 120.392 151.601C120.887 151.844 121.241 152.212 121.456 152.707C121.563 152.94 121.631 153.195 121.659 153.47C121.687 153.741 121.701 154.025 121.701 154.324V159H120.595V157.187L120.854 157.355C120.569 157.966 120.17 158.428 119.657 158.741C119.148 159.054 118.528 159.21 117.795 159.21ZM117.984 158.167C118.432 158.167 118.819 158.088 119.146 157.929C119.477 157.766 119.743 157.553 119.944 157.292C120.145 157.026 120.275 156.737 120.336 156.424C120.406 156.191 120.443 155.932 120.448 155.647C120.457 155.358 120.462 155.136 120.462 154.982L120.896 155.171C120.49 155.227 120.091 155.281 119.699 155.332C119.307 155.383 118.936 155.439 118.586 155.5C118.236 155.556 117.921 155.624 117.641 155.703C117.436 155.768 117.242 155.852 117.06 155.955C116.883 156.058 116.738 156.191 116.626 156.354C116.519 156.513 116.465 156.711 116.465 156.949C116.465 157.154 116.516 157.35 116.619 157.537C116.726 157.724 116.89 157.875 117.109 157.992C117.333 158.109 117.625 158.167 117.984 158.167ZM128.673 159.21C128.108 159.21 127.634 159.107 127.252 158.902C126.874 158.692 126.587 158.417 126.391 158.076C126.199 157.735 126.104 157.362 126.104 156.956C126.104 156.559 126.178 156.216 126.328 155.927C126.482 155.633 126.696 155.39 126.972 155.199C127.247 155.003 127.576 154.849 127.959 154.737C128.318 154.639 128.719 154.555 129.163 154.485C129.611 154.41 130.063 154.343 130.521 154.282C130.978 154.221 131.405 154.163 131.802 154.107L131.354 154.366C131.368 153.694 131.232 153.197 130.948 152.875C130.668 152.553 130.182 152.392 129.492 152.392C129.034 152.392 128.633 152.497 128.288 152.707C127.947 152.912 127.707 153.248 127.567 153.715L126.384 153.358C126.566 152.695 126.918 152.175 127.441 151.797C127.963 151.419 128.652 151.23 129.506 151.23C130.192 151.23 130.78 151.354 131.27 151.601C131.764 151.844 132.119 152.212 132.334 152.707C132.441 152.94 132.509 153.195 132.537 153.47C132.565 153.741 132.579 154.025 132.579 154.324V159H131.473V157.187L131.732 157.355C131.447 157.966 131.048 158.428 130.535 158.741C130.026 159.054 129.405 159.21 128.673 159.21ZM128.862 158.167C129.31 158.167 129.697 158.088 130.024 157.929C130.355 157.766 130.621 157.553 130.822 157.292C131.022 157.026 131.153 156.737 131.214 156.424C131.284 156.191 131.321 155.932 131.326 155.647C131.335 155.358 131.34 155.136 131.34 154.982L131.774 155.171C131.368 155.227 130.969 155.281 130.577 155.332C130.185 155.383 129.814 155.439 129.464 155.5C129.114 155.556 128.799 155.624 128.519 155.703C128.313 155.768 128.12 155.852 127.938 155.955C127.76 156.058 127.616 156.191 127.504 156.354C127.396 156.513 127.343 156.711 127.343 156.949C127.343 157.154 127.394 157.35 127.497 157.537C127.604 157.724 127.767 157.875 127.987 157.992C128.211 158.109 128.502 158.167 128.862 158.167ZM137.971 159.21C137.261 159.21 136.664 159.035 136.179 158.685C135.693 158.33 135.325 157.852 135.073 157.25C134.825 156.643 134.702 155.964 134.702 155.213C134.702 154.452 134.825 153.771 135.073 153.169C135.325 152.567 135.693 152.093 136.179 151.748C136.669 151.403 137.268 151.23 137.978 151.23C138.678 151.23 139.28 151.405 139.784 151.755C140.292 152.1 140.682 152.574 140.953 153.176C141.223 153.778 141.359 154.457 141.359 155.213C141.359 155.969 141.223 156.648 140.953 157.25C140.682 157.852 140.292 158.33 139.784 158.685C139.28 159.035 138.675 159.21 137.971 159.21ZM134.492 162.36V151.44H135.605V157.005H135.745V162.36H134.492ZM137.817 158.069C138.316 158.069 138.729 157.943 139.056 157.691C139.382 157.439 139.627 157.098 139.791 156.669C139.954 156.235 140.036 155.75 140.036 155.213C140.036 154.681 139.954 154.2 139.791 153.771C139.632 153.342 139.385 153.001 139.049 152.749C138.717 152.497 138.295 152.371 137.782 152.371C137.292 152.371 136.886 152.492 136.564 152.735C136.242 152.973 136.001 153.307 135.843 153.736C135.684 154.161 135.605 154.653 135.605 155.213C135.605 155.764 135.682 156.256 135.836 156.69C135.994 157.119 136.237 157.458 136.564 157.705C136.89 157.948 137.308 158.069 137.817 158.069ZM143.133 159V148.71H144.379V159H143.133ZM146.72 150.103V148.815H147.966V150.103H146.72ZM146.72 159V151.44H147.966V159H146.72ZM153.351 159.21C152.586 159.21 151.935 159.04 151.398 158.699C150.866 158.354 150.46 157.88 150.18 157.278C149.9 156.676 149.755 155.99 149.746 155.22C149.755 154.431 149.902 153.738 150.187 153.141C150.476 152.539 150.889 152.07 151.426 151.734C151.963 151.398 152.609 151.23 153.365 151.23C154.163 151.23 154.849 151.426 155.423 151.818C156.002 152.21 156.389 152.747 156.585 153.428L155.353 153.799C155.194 153.36 154.935 153.02 154.576 152.777C154.221 152.534 153.813 152.413 153.351 152.413C152.833 152.413 152.406 152.534 152.07 152.777C151.734 153.015 151.484 153.346 151.321 153.771C151.158 154.191 151.074 154.674 151.069 155.22C151.078 156.06 151.272 156.739 151.65 157.257C152.033 157.77 152.6 158.027 153.351 158.027C153.846 158.027 154.256 157.915 154.583 157.691C154.91 157.462 155.157 157.133 155.325 156.704L156.585 157.033C156.324 157.738 155.915 158.277 155.36 158.65C154.805 159.023 154.135 159.21 153.351 159.21ZM160.194 159.21C159.63 159.21 159.156 159.107 158.773 158.902C158.395 158.692 158.108 158.417 157.912 158.076C157.721 157.735 157.625 157.362 157.625 156.956C157.625 156.559 157.7 156.216 157.849 155.927C158.003 155.633 158.218 155.39 158.493 155.199C158.769 155.003 159.098 154.849 159.48 154.737C159.84 154.639 160.241 154.555 160.684 154.485C161.132 154.41 161.585 154.343 162.042 154.282C162.5 154.221 162.927 154.163 163.323 154.107L162.875 154.366C162.889 153.694 162.754 153.197 162.469 152.875C162.189 152.553 161.704 152.392 161.013 152.392C160.556 152.392 160.155 152.497 159.809 152.707C159.469 152.912 159.228 153.248 159.088 153.715L157.905 153.358C158.087 152.695 158.44 152.175 158.962 151.797C159.485 151.419 160.173 151.23 161.027 151.23C161.713 151.23 162.301 151.354 162.791 151.601C163.286 151.844 163.641 152.212 163.855 152.707C163.963 152.94 164.03 153.195 164.058 153.47C164.086 153.741 164.1 154.025 164.1 154.324V159H162.994V157.187L163.253 157.355C162.969 157.966 162.57 158.428 162.056 158.741C161.548 159.054 160.927 159.21 160.194 159.21ZM160.383 158.167C160.831 158.167 161.219 158.088 161.545 157.929C161.877 157.766 162.143 157.553 162.343 157.292C162.544 157.026 162.675 156.737 162.735 156.424C162.805 156.191 162.843 155.932 162.847 155.647C162.857 155.358 162.861 155.136 162.861 154.982L163.295 155.171C162.889 155.227 162.49 155.281 162.098 155.332C161.706 155.383 161.335 155.439 160.985 155.5C160.635 155.556 160.32 155.624 160.04 155.703C159.835 155.768 159.641 155.852 159.459 155.955C159.282 156.058 159.137 156.191 159.025 156.354C158.918 156.513 158.864 156.711 158.864 156.949C158.864 157.154 158.916 157.35 159.018 157.537C159.126 157.724 159.289 157.875 159.508 157.992C159.732 158.109 160.024 158.167 160.383 158.167ZM168.988 159.21C168.284 159.21 167.679 159.035 167.175 158.685C166.671 158.33 166.282 157.852 166.006 157.25C165.736 156.648 165.6 155.969 165.6 155.213C165.6 154.457 165.736 153.778 166.006 153.176C166.282 152.574 166.671 152.1 167.175 151.755C167.679 151.405 168.281 151.23 168.981 151.23C169.695 151.23 170.295 151.403 170.78 151.748C171.266 152.093 171.632 152.567 171.879 153.169C172.131 153.771 172.257 154.452 172.257 155.213C172.257 155.964 172.131 156.643 171.879 157.25C171.632 157.852 171.266 158.33 170.78 158.685C170.295 159.035 169.698 159.21 168.988 159.21ZM169.142 158.069C169.651 158.069 170.069 157.948 170.395 157.705C170.722 157.458 170.962 157.119 171.116 156.69C171.275 156.256 171.354 155.764 171.354 155.213C171.354 154.653 171.275 154.161 171.116 153.736C170.962 153.307 170.724 152.973 170.402 152.735C170.08 152.492 169.672 152.371 169.177 152.371C168.664 152.371 168.239 152.497 167.903 152.749C167.572 153.001 167.325 153.342 167.161 153.771C167.003 154.2 166.923 154.681 166.923 155.213C166.923 155.75 167.005 156.235 167.168 156.669C167.332 157.098 167.577 157.439 167.903 157.691C168.235 157.943 168.648 158.069 169.142 158.069ZM171.354 159V153.435H171.214V148.92H172.467V159H171.354ZM176.677 159.21C176.113 159.21 175.639 159.107 175.256 158.902C174.878 158.692 174.591 158.417 174.395 158.076C174.204 157.735 174.108 157.362 174.108 156.956C174.108 156.559 174.183 156.216 174.332 155.927C174.486 155.633 174.701 155.39 174.976 155.199C175.252 155.003 175.581 154.849 175.963 154.737C176.323 154.639 176.724 154.555 177.167 154.485C177.615 154.41 178.068 154.343 178.525 154.282C178.983 154.221 179.41 154.163 179.806 154.107L179.358 154.366C179.372 153.694 179.237 153.197 178.952 152.875C178.672 152.553 178.187 152.392 177.496 152.392C177.039 152.392 176.638 152.497 176.292 152.707C175.952 152.912 175.711 153.248 175.571 153.715L174.388 153.358C174.57 152.695 174.923 152.175 175.445 151.797C175.968 151.419 176.656 151.23 177.51 151.23C178.196 151.23 178.784 151.354 179.274 151.601C179.769 151.844 180.124 152.212 180.338 152.707C180.446 152.94 180.513 153.195 180.541 153.47C180.569 153.741 180.583 154.025 180.583 154.324V159H179.477V157.187L179.736 157.355C179.452 157.966 179.053 158.428 178.539 158.741C178.031 159.054 177.41 159.21 176.677 159.21ZM176.866 158.167C177.314 158.167 177.702 158.088 178.028 157.929C178.36 157.766 178.626 157.553 178.826 157.292C179.027 157.026 179.158 156.737 179.218 156.424C179.288 156.191 179.326 155.932 179.33 155.647C179.34 155.358 179.344 155.136 179.344 154.982L179.778 155.171C179.372 155.227 178.973 155.281 178.581 155.332C178.189 155.383 177.818 155.439 177.468 155.5C177.118 155.556 176.803 155.624 176.523 155.703C176.318 155.768 176.124 155.852 175.942 155.955C175.765 156.058 175.62 156.191 175.508 156.354C175.401 156.513 175.347 156.711 175.347 156.949C175.347 157.154 175.399 157.35 175.501 157.537C175.609 157.724 175.772 157.875 175.991 157.992C176.215 158.109 176.507 158.167 176.866 158.167ZM188.682 159.21C187.94 159.21 187.292 159.047 186.736 158.72C186.186 158.389 185.756 157.929 185.448 157.341C185.14 156.748 184.986 156.058 184.986 155.269C184.986 154.443 185.138 153.729 185.441 153.127C185.745 152.52 186.167 152.054 186.708 151.727C187.254 151.396 187.894 151.23 188.626 151.23C189.387 151.23 190.033 151.405 190.565 151.755C191.102 152.105 191.503 152.604 191.769 153.253C192.04 153.902 192.157 154.674 192.119 155.57H190.859V155.122C190.845 154.193 190.656 153.5 190.292 153.043C189.928 152.581 189.387 152.35 188.668 152.35C187.898 152.35 187.313 152.597 186.911 153.092C186.51 153.587 186.309 154.296 186.309 155.22C186.309 156.111 186.51 156.802 186.911 157.292C187.313 157.782 187.884 158.027 188.626 158.027C189.126 158.027 189.56 157.913 189.928 157.684C190.297 157.455 190.586 157.126 190.796 156.697L191.993 157.11C191.699 157.777 191.256 158.295 190.663 158.664C190.075 159.028 189.415 159.21 188.682 159.21ZM185.889 155.57V154.569H191.475V155.57H185.889ZM198.956 159V155.213C198.956 154.854 198.923 154.508 198.858 154.177C198.797 153.846 198.687 153.549 198.529 153.288C198.375 153.022 198.165 152.812 197.899 152.658C197.637 152.504 197.306 152.427 196.905 152.427C196.592 152.427 196.307 152.481 196.051 152.588C195.799 152.691 195.582 152.849 195.4 153.064C195.218 153.279 195.075 153.549 194.973 153.876C194.875 154.198 194.826 154.578 194.826 155.017L194.007 154.765C194.007 154.032 194.137 153.405 194.399 152.882C194.665 152.355 195.036 151.951 195.512 151.671C195.992 151.386 196.557 151.244 197.206 151.244C197.696 151.244 198.113 151.321 198.459 151.475C198.804 151.629 199.091 151.834 199.32 152.091C199.548 152.343 199.728 152.628 199.859 152.945C199.989 153.258 200.08 153.577 200.132 153.904C200.188 154.226 200.216 154.532 200.216 154.821V159H198.956ZM193.566 159V151.44H194.686V153.463H194.826V159H193.566ZM208.006 159.21C207.302 159.21 206.697 159.035 206.193 158.685C205.689 158.33 205.3 157.852 205.024 157.25C204.754 156.648 204.618 155.969 204.618 155.213C204.618 154.457 204.754 153.778 205.024 153.176C205.3 152.574 205.689 152.1 206.193 151.755C206.697 151.405 207.299 151.23 207.999 151.23C208.713 151.23 209.313 151.403 209.798 151.748C210.284 152.093 210.65 152.567 210.897 153.169C211.149 153.771 211.275 154.452 211.275 155.213C211.275 155.964 211.149 156.643 210.897 157.25C210.65 157.852 210.284 158.33 209.798 158.685C209.313 159.035 208.716 159.21 208.006 159.21ZM208.16 158.069C208.669 158.069 209.087 157.948 209.413 157.705C209.74 157.458 209.98 157.119 210.134 156.69C210.293 156.256 210.372 155.764 210.372 155.213C210.372 154.653 210.293 154.161 210.134 153.736C209.98 153.307 209.742 152.973 209.42 152.735C209.098 152.492 208.69 152.371 208.195 152.371C207.682 152.371 207.257 152.497 206.921 152.749C206.59 153.001 206.343 153.342 206.179 153.771C206.021 154.2 205.941 154.681 205.941 155.213C205.941 155.75 206.023 156.235 206.186 156.669C206.35 157.098 206.595 157.439 206.921 157.691C207.253 157.943 207.666 158.069 208.16 158.069ZM210.372 159V153.435H210.232V148.92H211.485V159H210.372ZM216.822 159.21C216.08 159.21 215.432 159.047 214.876 158.72C214.326 158.389 213.896 157.929 213.588 157.341C213.28 156.748 213.126 156.058 213.126 155.269C213.126 154.443 213.278 153.729 213.581 153.127C213.885 152.52 214.307 152.054 214.848 151.727C215.394 151.396 216.034 151.23 216.766 151.23C217.527 151.23 218.173 151.405 218.705 151.755C219.242 152.105 219.643 152.604 219.909 153.253C220.18 153.902 220.297 154.674 220.259 155.57H218.999V155.122C218.985 154.193 218.796 153.5 218.432 153.043C218.068 152.581 217.527 152.35 216.808 152.35C216.038 152.35 215.453 152.597 215.051 153.092C214.65 153.587 214.449 154.296 214.449 155.22C214.449 156.111 214.65 156.802 215.051 157.292C215.453 157.782 216.024 158.027 216.766 158.027C217.266 158.027 217.7 157.913 218.068 157.684C218.437 157.455 218.726 157.126 218.936 156.697L220.133 157.11C219.839 157.777 219.396 158.295 218.803 158.664C218.215 159.028 217.555 159.21 216.822 159.21ZM214.029 155.57V154.569H219.615V155.57H214.029ZM224.774 159.203C223.873 159.203 223.134 159.007 222.555 158.615C221.981 158.218 221.629 157.665 221.498 156.956L222.772 156.753C222.875 157.164 223.11 157.49 223.479 157.733C223.848 157.971 224.305 158.09 224.851 158.09C225.369 158.09 225.775 157.983 226.069 157.768C226.363 157.553 226.51 157.262 226.51 156.893C226.51 156.678 226.461 156.506 226.363 156.375C226.265 156.24 226.062 156.114 225.754 155.997C225.451 155.88 224.991 155.74 224.375 155.577C223.708 155.4 223.183 155.215 222.8 155.024C222.417 154.833 222.144 154.611 221.981 154.359C221.818 154.107 221.736 153.801 221.736 153.442C221.736 152.999 221.857 152.611 222.1 152.28C222.343 151.944 222.681 151.685 223.115 151.503C223.554 151.321 224.062 151.23 224.641 151.23C225.215 151.23 225.728 151.321 226.181 151.503C226.634 151.685 226.998 151.944 227.273 152.28C227.553 152.611 227.719 152.999 227.77 153.442L226.496 153.673C226.435 153.267 226.239 152.947 225.908 152.714C225.581 152.481 225.159 152.357 224.641 152.343C224.151 152.324 223.752 152.411 223.444 152.602C223.141 152.793 222.989 153.052 222.989 153.379C222.989 153.561 223.045 153.717 223.157 153.848C223.274 153.979 223.486 154.102 223.794 154.219C224.107 154.336 224.559 154.469 225.152 154.618C225.819 154.786 226.344 154.97 226.727 155.171C227.114 155.367 227.39 155.6 227.553 155.871C227.716 156.137 227.798 156.466 227.798 156.858C227.798 157.586 227.53 158.16 226.993 158.58C226.456 158.995 225.717 159.203 224.774 159.203ZM231.591 159.21C231.026 159.21 230.552 159.107 230.17 158.902C229.792 158.692 229.505 158.417 229.309 158.076C229.117 157.735 229.022 157.362 229.022 156.956C229.022 156.559 229.096 156.216 229.246 155.927C229.4 155.633 229.614 155.39 229.89 155.199C230.165 155.003 230.494 154.849 230.877 154.737C231.236 154.639 231.637 154.555 232.081 154.485C232.529 154.41 232.981 154.343 233.439 154.282C233.896 154.221 234.323 154.163 234.72 154.107L234.272 154.366C234.286 153.694 234.15 153.197 233.866 152.875C233.586 152.553 233.1 152.392 232.41 152.392C231.952 152.392 231.551 152.497 231.206 152.707C230.865 152.912 230.625 153.248 230.485 153.715L229.302 153.358C229.484 152.695 229.836 152.175 230.359 151.797C230.881 151.419 231.57 151.23 232.424 151.23C233.11 151.23 233.698 151.354 234.188 151.601C234.682 151.844 235.037 152.212 235.252 152.707C235.359 152.94 235.427 153.195 235.455 153.47C235.483 153.741 235.497 154.025 235.497 154.324V159H234.391V157.187L234.65 157.355C234.365 157.966 233.966 158.428 233.453 158.741C232.944 159.054 232.323 159.21 231.591 159.21ZM231.78 158.167C232.228 158.167 232.615 158.088 232.942 157.929C233.273 157.766 233.539 157.553 233.74 157.292C233.94 157.026 234.071 156.737 234.132 156.424C234.202 156.191 234.239 155.932 234.244 155.647C234.253 155.358 234.258 155.136 234.258 154.982L234.692 155.171C234.286 155.227 233.887 155.281 233.495 155.332C233.103 155.383 232.732 155.439 232.382 155.5C232.032 155.556 231.717 155.624 231.437 155.703C231.231 155.768 231.038 155.852 230.856 155.955C230.678 156.058 230.534 156.191 230.422 156.354C230.314 156.513 230.261 156.711 230.261 156.949C230.261 157.154 230.312 157.35 230.415 157.537C230.522 157.724 230.685 157.875 230.905 157.992C231.129 158.109 231.42 158.167 231.78 158.167ZM237.417 159V151.44H238.53V153.267L238.348 153.029C238.436 152.796 238.551 152.581 238.691 152.385C238.835 152.189 238.996 152.028 239.174 151.902C239.37 151.743 239.591 151.622 239.839 151.538C240.086 151.454 240.338 151.405 240.595 151.391C240.851 151.372 241.092 151.389 241.316 151.44V152.609C241.054 152.539 240.767 152.52 240.455 152.553C240.142 152.586 239.853 152.7 239.587 152.896C239.344 153.069 239.155 153.279 239.02 153.526C238.889 153.773 238.798 154.042 238.747 154.331C238.695 154.616 238.67 154.907 238.67 155.206V159H237.417ZM242.739 159V151.44H243.852V153.267L243.67 153.029C243.759 152.796 243.873 152.581 244.013 152.385C244.158 152.189 244.319 152.028 244.496 151.902C244.692 151.743 244.914 151.622 245.161 151.538C245.409 151.454 245.661 151.405 245.917 151.391C246.174 151.372 246.414 151.389 246.638 151.44V152.609C246.377 152.539 246.09 152.52 245.777 152.553C245.465 152.586 245.175 152.7 244.909 152.896C244.667 153.069 244.478 153.279 244.342 153.526C244.212 153.773 244.121 154.042 244.069 154.331C244.018 154.616 243.992 154.907 243.992 155.206V159H242.739ZM251.145 159.21C250.394 159.21 249.745 159.04 249.199 158.699C248.658 158.358 248.24 157.887 247.946 157.285C247.652 156.683 247.505 155.992 247.505 155.213C247.505 154.42 247.655 153.724 247.953 153.127C248.252 152.53 248.674 152.065 249.22 151.734C249.766 151.398 250.408 151.23 251.145 151.23C251.901 151.23 252.552 151.4 253.098 151.741C253.644 152.077 254.062 152.546 254.351 153.148C254.645 153.745 254.792 154.434 254.792 155.213C254.792 156.002 254.645 156.697 254.351 157.299C254.057 157.896 253.637 158.365 253.091 158.706C252.545 159.042 251.897 159.21 251.145 159.21ZM251.145 158.027C251.929 158.027 252.513 157.766 252.895 157.243C253.278 156.72 253.469 156.044 253.469 155.213C253.469 154.359 253.276 153.68 252.888 153.176C252.501 152.667 251.92 152.413 251.145 152.413C250.618 152.413 250.184 152.532 249.843 152.77C249.503 153.008 249.248 153.337 249.08 153.757C248.912 154.177 248.828 154.662 248.828 155.213C248.828 156.062 249.024 156.744 249.416 157.257C249.808 157.77 250.385 158.027 251.145 158.027ZM256.574 159V148.71H257.82V159H256.574ZM260.16 159V148.71H261.406V159H260.16ZM266.826 159.21C266.075 159.21 265.426 159.04 264.88 158.699C264.339 158.358 263.921 157.887 263.627 157.285C263.333 156.683 263.186 155.992 263.186 155.213C263.186 154.42 263.336 153.724 263.634 153.127C263.933 152.53 264.355 152.065 264.901 151.734C265.447 151.398 266.089 151.23 266.826 151.23C267.582 151.23 268.233 151.4 268.779 151.741C269.325 152.077 269.743 152.546 270.032 153.148C270.326 153.745 270.473 154.434 270.473 155.213C270.473 156.002 270.326 156.697 270.032 157.299C269.738 157.896 269.318 158.365 268.772 158.706C268.226 159.042 267.578 159.21 266.826 159.21ZM266.826 158.027C267.61 158.027 268.194 157.766 268.576 157.243C268.959 156.72 269.15 156.044 269.15 155.213C269.15 154.359 268.957 153.68 268.569 153.176C268.182 152.667 267.601 152.413 266.826 152.413C266.299 152.413 265.865 152.532 265.524 152.77C265.184 153.008 264.929 153.337 264.761 153.757C264.593 154.177 264.509 154.662 264.509 155.213C264.509 156.062 264.705 156.744 265.097 157.257C265.489 157.77 266.066 158.027 266.826 158.027ZM271.701 160.568L271.778 159.987C271.974 160.001 272.121 159.964 272.219 159.875C272.317 159.786 272.38 159.665 272.408 159.511C272.436 159.357 272.441 159.187 272.422 159H271.701V157.418H273.073V159.21C273.073 159.7 272.952 160.069 272.709 160.316C272.471 160.563 272.135 160.647 271.701 160.568ZM46.372 181.21C45.6674 181.21 45.063 181.035 44.559 180.685C44.055 180.33 43.6654 179.852 43.39 179.25C43.1194 178.648 42.984 177.969 42.984 177.213C42.984 176.457 43.1194 175.778 43.39 175.176C43.6654 174.574 44.055 174.1 44.559 173.755C45.063 173.405 45.665 173.23 46.365 173.23C47.079 173.23 47.6787 173.403 48.164 173.748C48.6494 174.093 49.0157 174.567 49.263 175.169C49.515 175.771 49.641 176.452 49.641 177.213C49.641 177.964 49.515 178.643 49.263 179.25C49.0157 179.852 48.6494 180.33 48.164 180.685C47.6787 181.035 47.0814 181.21 46.372 181.21ZM46.526 180.069C47.0347 180.069 47.4524 179.948 47.779 179.705C48.1057 179.458 48.346 179.119 48.5 178.69C48.6587 178.256 48.738 177.764 48.738 177.213C48.738 176.653 48.6587 176.161 48.5 175.736C48.346 175.307 48.108 174.973 47.786 174.735C47.464 174.492 47.0557 174.371 46.561 174.371C46.0477 174.371 45.623 174.497 45.287 174.749C44.9557 175.001 44.7084 175.342 44.545 175.771C44.3864 176.2 44.307 176.681 44.307 177.213C44.307 177.75 44.3887 178.235 44.552 178.669C44.7154 179.098 44.9604 179.439 45.287 179.691C45.6184 179.943 46.0314 180.069 46.526 180.069ZM48.738 181V175.435H48.598V170.92H49.851V181H48.738ZM55.1322 181.21C54.3809 181.21 53.7322 181.04 53.1862 180.699C52.6449 180.358 52.2272 179.887 51.9332 179.285C51.6392 178.683 51.4922 177.992 51.4922 177.213C51.4922 176.42 51.6416 175.724 51.9402 175.127C52.2389 174.53 52.6612 174.065 53.2072 173.734C53.7532 173.398 54.3949 173.23 55.1322 173.23C55.8882 173.23 56.5392 173.4 57.0852 173.741C57.6312 174.077 58.0489 174.546 58.3382 175.148C58.6322 175.745 58.7792 176.434 58.7792 177.213C58.7792 178.002 58.6322 178.697 58.3382 179.299C58.0442 179.896 57.6242 180.365 57.0782 180.706C56.5322 181.042 55.8836 181.21 55.1322 181.21ZM55.1322 180.027C55.9162 180.027 56.4996 179.766 56.8822 179.243C57.2649 178.72 57.4562 178.044 57.4562 177.213C57.4562 176.359 57.2626 175.68 56.8752 175.176C56.4879 174.667 55.9069 174.413 55.1322 174.413C54.6049 174.413 54.1709 174.532 53.8302 174.77C53.4896 175.008 53.2352 175.337 53.0672 175.757C52.8992 176.177 52.8152 176.662 52.8152 177.213C52.8152 178.062 53.0112 178.744 53.4032 179.257C53.7952 179.77 54.3716 180.027 55.1322 180.027ZM63.6054 181.21C62.8401 181.21 62.1891 181.04 61.6524 180.699C61.1204 180.354 60.7144 179.88 60.4344 179.278C60.1544 178.676 60.0098 177.99 60.0004 177.22C60.0098 176.431 60.1568 175.738 60.4414 175.141C60.7308 174.539 61.1438 174.07 61.6804 173.734C62.2171 173.398 62.8634 173.23 63.6194 173.23C64.4174 173.23 65.1034 173.426 65.6774 173.818C66.2561 174.21 66.6434 174.747 66.8394 175.428L65.6074 175.799C65.4488 175.36 65.1898 175.02 64.8304 174.777C64.4758 174.534 64.0674 174.413 63.6054 174.413C63.0874 174.413 62.6604 174.534 62.3244 174.777C61.9884 175.015 61.7388 175.346 61.5754 175.771C61.4121 176.191 61.3281 176.674 61.3234 177.22C61.3328 178.06 61.5264 178.739 61.9044 179.257C62.2871 179.77 62.8541 180.027 63.6054 180.027C64.1001 180.027 64.5108 179.915 64.8374 179.691C65.1641 179.462 65.4114 179.133 65.5794 178.704L66.8394 179.033C66.5781 179.738 66.1698 180.277 65.6144 180.65C65.0591 181.023 64.3894 181.21 63.6054 181.21ZM71.439 181.21C70.697 181.21 70.0483 181.047 69.493 180.72C68.9423 180.389 68.513 179.929 68.205 179.341C67.897 178.748 67.743 178.058 67.743 177.269C67.743 176.443 67.8947 175.729 68.198 175.127C68.5013 174.52 68.9237 174.054 69.465 173.727C70.011 173.396 70.6503 173.23 71.383 173.23C72.1437 173.23 72.79 173.405 73.322 173.755C73.8587 174.105 74.26 174.604 74.526 175.253C74.7967 175.902 74.9133 176.674 74.876 177.57H73.616V177.122C73.602 176.193 73.413 175.5 73.049 175.043C72.685 174.581 72.1437 174.35 71.425 174.35C70.655 174.35 70.0693 174.597 69.668 175.092C69.2667 175.587 69.066 176.296 69.066 177.22C69.066 178.111 69.2667 178.802 69.668 179.292C70.0693 179.782 70.641 180.027 71.383 180.027C71.8823 180.027 72.3163 179.913 72.685 179.684C73.0537 179.455 73.343 179.126 73.553 178.697L74.75 179.11C74.456 179.777 74.0127 180.295 73.42 180.664C72.832 181.028 72.1717 181.21 71.439 181.21ZM68.646 177.57V176.569H74.232V177.57H68.646ZM81.7124 181V177.213C81.7124 176.854 81.6798 176.508 81.6144 176.177C81.5538 175.846 81.4441 175.549 81.2854 175.288C81.1314 175.022 80.9214 174.812 80.6554 174.658C80.3941 174.504 80.0628 174.427 79.6614 174.427C79.3488 174.427 79.0641 174.481 78.8074 174.588C78.5554 174.691 78.3384 174.849 78.1564 175.064C77.9744 175.279 77.8321 175.549 77.7294 175.876C77.6314 176.198 77.5824 176.578 77.5824 177.017L76.7634 176.765C76.7634 176.032 76.8941 175.405 77.1554 174.882C77.4214 174.355 77.7924 173.951 78.2684 173.671C78.7491 173.386 79.3138 173.244 79.9624 173.244C80.4524 173.244 80.8701 173.321 81.2154 173.475C81.5608 173.629 81.8478 173.834 82.0764 174.091C82.3051 174.343 82.4848 174.628 82.6154 174.945C82.7461 175.258 82.8371 175.577 82.8884 175.904C82.9444 176.226 82.9724 176.532 82.9724 176.821V181H81.7124ZM76.3224 181V173.44H77.4424V175.463H77.5824V181H76.3224ZM88.0089 181.21C87.2436 181.21 86.5926 181.04 86.0559 180.699C85.5239 180.354 85.1179 179.88 84.8379 179.278C84.5579 178.676 84.4133 177.99 84.4039 177.22C84.4133 176.431 84.5603 175.738 84.8449 175.141C85.1343 174.539 85.5473 174.07 86.0839 173.734C86.6206 173.398 87.2669 173.23 88.0229 173.23C88.8209 173.23 89.5069 173.426 90.0809 173.818C90.6596 174.21 91.0469 174.747 91.2429 175.428L90.0109 175.799C89.8523 175.36 89.5933 175.02 89.2339 174.777C88.8793 174.534 88.4709 174.413 88.0089 174.413C87.4909 174.413 87.0639 174.534 86.7279 174.777C86.3919 175.015 86.1423 175.346 85.9789 175.771C85.8156 176.191 85.7316 176.674 85.7269 177.22C85.7363 178.06 85.9299 178.739 86.3079 179.257C86.6906 179.77 87.2576 180.027 88.0089 180.027C88.5036 180.027 88.9143 179.915 89.2409 179.691C89.5676 179.462 89.8149 179.133 89.9829 178.704L91.2429 179.033C90.9816 179.738 90.5733 180.277 90.0179 180.65C89.4626 181.023 88.7929 181.21 88.0089 181.21ZM92.7065 172.103V170.815H93.9525V172.103H92.7065ZM92.7065 181V173.44H93.9525V181H92.7065ZM98.3019 181.21C97.7372 181.21 97.2635 181.107 96.8809 180.902C96.5029 180.692 96.2159 180.417 96.0199 180.076C95.8285 179.735 95.7329 179.362 95.7329 178.956C95.7329 178.559 95.8075 178.216 95.9569 177.927C96.1109 177.633 96.3255 177.39 96.6009 177.199C96.8762 177.003 97.2052 176.849 97.5879 176.737C97.9472 176.639 98.3485 176.555 98.7919 176.485C99.2399 176.41 99.6925 176.343 100.15 176.282C100.607 176.221 101.034 176.163 101.431 176.107L100.983 176.366C100.997 175.694 100.862 175.197 100.577 174.875C100.297 174.553 99.8115 174.392 99.1209 174.392C98.6635 174.392 98.2622 174.497 97.9169 174.707C97.5762 174.912 97.3359 175.248 97.1959 175.715L96.0129 175.358C96.1949 174.695 96.5472 174.175 97.0699 173.797C97.5925 173.419 98.2809 173.23 99.1349 173.23C99.8209 173.23 100.409 173.354 100.899 173.601C101.394 173.844 101.748 174.212 101.963 174.707C102.07 174.94 102.138 175.195 102.166 175.47C102.194 175.741 102.208 176.025 102.208 176.324V181H101.102V179.187L101.361 179.355C101.076 179.966 100.677 180.428 100.164 180.741C99.6552 181.054 99.0345 181.21 98.3019 181.21ZM98.4909 180.167C98.9389 180.167 99.3262 180.088 99.6529 179.929C99.9842 179.766 100.25 179.553 100.451 179.292C100.652 179.026 100.782 178.737 100.843 178.424C100.913 178.191 100.95 177.932 100.955 177.647C100.964 177.358 100.969 177.136 100.969 176.982L101.403 177.171C100.997 177.227 100.598 177.281 100.206 177.332C99.8139 177.383 99.4429 177.439 99.0929 177.5C98.7429 177.556 98.4279 177.624 98.1479 177.703C97.9425 177.768 97.7489 177.852 97.5669 177.955C97.3895 178.058 97.2449 178.191 97.1329 178.354C97.0255 178.513 96.9719 178.711 96.9719 178.949C96.9719 179.154 97.0232 179.35 97.1259 179.537C97.2332 179.724 97.3965 179.875 97.6159 179.992C97.8399 180.109 98.1315 180.167 98.4909 180.167ZM108.081 184.36L109.544 180.384L109.565 181.56L106.261 173.44H107.57L110.16 179.971H109.712L112.141 173.44H113.408L109.292 184.36H108.081ZM120.752 181.21C119.986 181.21 119.335 181.04 118.799 180.699C118.267 180.354 117.861 179.88 117.581 179.278C117.301 178.676 117.156 177.99 117.147 177.22C117.156 176.431 117.303 175.738 117.588 175.141C117.877 174.539 118.29 174.07 118.827 173.734C119.363 173.398 120.01 173.23 120.766 173.23C121.564 173.23 122.25 173.426 122.824 173.818C123.402 174.21 123.79 174.747 123.986 175.428L122.754 175.799C122.595 175.36 122.336 175.02 121.977 174.777C121.622 174.534 121.214 174.413 120.752 174.413C120.234 174.413 119.807 174.534 119.471 174.777C119.135 175.015 118.885 175.346 118.722 175.771C118.558 176.191 118.474 176.674 118.47 177.22C118.479 178.06 118.673 178.739 119.051 179.257C119.433 179.77 120 180.027 120.752 180.027C121.246 180.027 121.657 179.915 121.984 179.691C122.31 179.462 122.558 179.133 122.726 178.704L123.986 179.033C123.724 179.738 123.316 180.277 122.761 180.65C122.205 181.023 121.536 181.21 120.752 181.21ZM128.529 181.21C127.778 181.21 127.129 181.04 126.583 180.699C126.042 180.358 125.624 179.887 125.33 179.285C125.036 178.683 124.889 177.992 124.889 177.213C124.889 176.42 125.038 175.724 125.337 175.127C125.636 174.53 126.058 174.065 126.604 173.734C127.15 173.398 127.792 173.23 128.529 173.23C129.285 173.23 129.936 173.4 130.482 173.741C131.028 174.077 131.446 174.546 131.735 175.148C132.029 175.745 132.176 176.434 132.176 177.213C132.176 178.002 132.029 178.697 131.735 179.299C131.441 179.896 131.021 180.365 130.475 180.706C129.929 181.042 129.28 181.21 128.529 181.21ZM128.529 180.027C129.313 180.027 129.896 179.766 130.279 179.243C130.662 178.72 130.853 178.044 130.853 177.213C130.853 176.359 130.659 175.68 130.272 175.176C129.885 174.667 129.304 174.413 128.529 174.413C128.002 174.413 127.568 174.532 127.227 174.77C126.886 175.008 126.632 175.337 126.464 175.757C126.296 176.177 126.212 176.662 126.212 177.213C126.212 178.062 126.408 178.744 126.8 179.257C127.192 179.77 127.768 180.027 128.529 180.027ZM139.2 181V177.213C139.2 176.854 139.168 176.508 139.102 176.177C139.042 175.846 138.932 175.549 138.773 175.288C138.619 175.022 138.409 174.812 138.143 174.658C137.882 174.504 137.551 174.427 137.149 174.427C136.837 174.427 136.552 174.481 136.295 174.588C136.043 174.691 135.826 174.849 135.644 175.064C135.462 175.279 135.32 175.549 135.217 175.876C135.119 176.198 135.07 176.578 135.07 177.017L134.251 176.765C134.251 176.032 134.382 175.405 134.643 174.882C134.909 174.355 135.28 173.951 135.756 173.671C136.237 173.386 136.802 173.244 137.45 173.244C137.94 173.244 138.358 173.321 138.703 173.475C139.049 173.629 139.336 173.834 139.564 174.091C139.793 174.343 139.973 174.628 140.103 174.945C140.234 175.258 140.325 175.577 140.376 175.904C140.432 176.226 140.46 176.532 140.46 176.821V181H139.2ZM133.81 181V173.44H134.93V175.463H135.07V181H133.81ZM145.236 181.203C144.336 181.203 143.596 181.007 143.017 180.615C142.443 180.218 142.091 179.665 141.96 178.956L143.234 178.753C143.337 179.164 143.573 179.49 143.941 179.733C144.31 179.971 144.767 180.09 145.313 180.09C145.831 180.09 146.237 179.983 146.531 179.768C146.825 179.553 146.972 179.262 146.972 178.893C146.972 178.678 146.923 178.506 146.825 178.375C146.727 178.24 146.524 178.114 146.216 177.997C145.913 177.88 145.453 177.74 144.837 177.577C144.17 177.4 143.645 177.215 143.262 177.024C142.88 176.833 142.607 176.611 142.443 176.359C142.28 176.107 142.198 175.801 142.198 175.442C142.198 174.999 142.32 174.611 142.562 174.28C142.805 173.944 143.143 173.685 143.577 173.503C144.016 173.321 144.525 173.23 145.103 173.23C145.677 173.23 146.191 173.321 146.643 173.503C147.096 173.685 147.46 173.944 147.735 174.28C148.015 174.611 148.181 174.999 148.232 175.442L146.958 175.673C146.898 175.267 146.702 174.947 146.37 174.714C146.044 174.481 145.621 174.357 145.103 174.343C144.613 174.324 144.214 174.411 143.906 174.602C143.603 174.793 143.451 175.052 143.451 175.379C143.451 175.561 143.507 175.717 143.619 175.848C143.736 175.979 143.948 176.102 144.256 176.219C144.569 176.336 145.022 176.469 145.614 176.618C146.282 176.786 146.807 176.97 147.189 177.171C147.577 177.367 147.852 177.6 148.015 177.871C148.179 178.137 148.26 178.466 148.26 178.858C148.26 179.586 147.992 180.16 147.455 180.58C146.919 180.995 146.179 181.203 145.236 181.203ZM152.774 181.196C152.289 181.196 151.871 181.119 151.521 180.965C151.176 180.811 150.889 180.606 150.66 180.349C150.431 180.092 150.252 179.808 150.121 179.495C149.99 179.182 149.897 178.863 149.841 178.536C149.79 178.209 149.764 177.904 149.764 177.619V173.44H151.024V177.227C151.024 177.582 151.057 177.925 151.122 178.256C151.187 178.587 151.297 178.886 151.451 179.152C151.61 179.418 151.82 179.628 152.081 179.782C152.347 179.936 152.678 180.013 153.075 180.013C153.388 180.013 153.672 179.959 153.929 179.852C154.186 179.745 154.405 179.586 154.587 179.376C154.769 179.161 154.909 178.891 155.007 178.564C155.105 178.237 155.154 177.857 155.154 177.423L155.973 177.675C155.973 178.403 155.84 179.031 155.574 179.558C155.313 180.085 154.942 180.491 154.461 180.776C153.985 181.056 153.423 181.196 152.774 181.196ZM155.294 181V178.977H155.154V173.44H156.407V181H155.294ZM158.607 181V170.71H159.853V181H158.607ZM166.274 181C165.826 181.089 165.383 181.124 164.944 181.105C164.51 181.091 164.123 181.005 163.782 180.846C163.442 180.683 163.183 180.431 163.005 180.09C162.856 179.791 162.774 179.49 162.76 179.187C162.751 178.879 162.746 178.531 162.746 178.144V171.34H163.992V178.088C163.992 178.396 163.995 178.66 163.999 178.879C164.009 179.098 164.058 179.287 164.146 179.446C164.314 179.745 164.58 179.92 164.944 179.971C165.313 180.022 165.756 180.008 166.274 179.929V181ZM161.213 174.469V173.44H166.274V174.469H161.213ZM170.815 181.21C170.063 181.21 169.415 181.04 168.869 180.699C168.327 180.358 167.91 179.887 167.616 179.285C167.322 178.683 167.175 177.992 167.175 177.213C167.175 176.42 167.324 175.724 167.623 175.127C167.921 174.53 168.344 174.065 168.89 173.734C169.436 173.398 170.077 173.23 170.815 173.23C171.571 173.23 172.222 173.4 172.768 173.741C173.314 174.077 173.731 174.546 174.021 175.148C174.315 175.745 174.462 176.434 174.462 177.213C174.462 178.002 174.315 178.697 174.021 179.299C173.727 179.896 173.307 180.365 172.761 180.706C172.215 181.042 171.566 181.21 170.815 181.21ZM170.815 180.027C171.599 180.027 172.182 179.766 172.565 179.243C172.947 178.72 173.139 178.044 173.139 177.213C173.139 176.359 172.945 175.68 172.558 175.176C172.17 174.667 171.589 174.413 170.815 174.413C170.287 174.413 169.853 174.532 169.513 174.77C169.172 175.008 168.918 175.337 168.75 175.757C168.582 176.177 168.498 176.662 168.498 177.213C168.498 178.062 168.694 178.744 169.086 179.257C169.478 179.77 170.054 180.027 170.815 180.027ZM176.103 181V173.44H177.216V175.267L177.034 175.029C177.123 174.796 177.237 174.581 177.377 174.385C177.522 174.189 177.683 174.028 177.86 173.902C178.056 173.743 178.278 173.622 178.525 173.538C178.772 173.454 179.024 173.405 179.281 173.391C179.538 173.372 179.778 173.389 180.002 173.44V174.609C179.741 174.539 179.454 174.52 179.141 174.553C178.828 174.586 178.539 174.7 178.273 174.896C178.03 175.069 177.841 175.279 177.706 175.526C177.575 175.773 177.484 176.042 177.433 176.331C177.382 176.616 177.356 176.907 177.356 177.206V181H176.103ZM182.721 172.285H181.706L182.623 169.975H183.638L182.721 172.285ZM181.566 181V173.44H182.812V181H181.566ZM187.161 181.21C186.596 181.21 186.123 181.107 185.74 180.902C185.362 180.692 185.075 180.417 184.879 180.076C184.688 179.735 184.592 179.362 184.592 178.956C184.592 178.559 184.667 178.216 184.816 177.927C184.97 177.633 185.185 177.39 185.46 177.199C185.735 177.003 186.064 176.849 186.447 176.737C186.806 176.639 187.208 176.555 187.651 176.485C188.099 176.41 188.552 176.343 189.009 176.282C189.466 176.221 189.893 176.163 190.29 176.107L189.842 176.366C189.856 175.694 189.721 175.197 189.436 174.875C189.156 174.553 188.671 174.392 187.98 174.392C187.523 174.392 187.121 174.497 186.776 174.707C186.435 174.912 186.195 175.248 186.055 175.715L184.872 175.358C185.054 174.695 185.406 174.175 185.929 173.797C186.452 173.419 187.14 173.23 187.994 173.23C188.68 173.23 189.268 173.354 189.758 173.601C190.253 173.844 190.607 174.212 190.822 174.707C190.929 174.94 190.997 175.195 191.025 175.47C191.053 175.741 191.067 176.025 191.067 176.324V181H189.961V179.187L190.22 179.355C189.935 179.966 189.536 180.428 189.023 180.741C188.514 181.054 187.894 181.21 187.161 181.21ZM187.35 180.167C187.798 180.167 188.185 180.088 188.512 179.929C188.843 179.766 189.109 179.553 189.31 179.292C189.511 179.026 189.641 178.737 189.702 178.424C189.772 178.191 189.809 177.932 189.814 177.647C189.823 177.358 189.828 177.136 189.828 176.982L190.262 177.171C189.856 177.227 189.457 177.281 189.065 177.332C188.673 177.383 188.302 177.439 187.952 177.5C187.602 177.556 187.287 177.624 187.007 177.703C186.802 177.768 186.608 177.852 186.426 177.955C186.249 178.058 186.104 178.191 185.992 178.354C185.885 178.513 185.831 178.711 185.831 178.949C185.831 179.154 185.882 179.35 185.985 179.537C186.092 179.724 186.256 179.875 186.475 179.992C186.699 180.109 186.991 180.167 187.35 180.167ZM200.111 181C199.663 181.089 199.219 181.124 198.781 181.105C198.347 181.091 197.959 181.005 197.619 180.846C197.278 180.683 197.019 180.431 196.842 180.09C196.692 179.791 196.611 179.49 196.597 179.187C196.587 178.879 196.583 178.531 196.583 178.144V171.34H197.829V178.088C197.829 178.396 197.831 178.66 197.836 178.879C197.845 179.098 197.894 179.287 197.983 179.446C198.151 179.745 198.417 179.92 198.781 179.971C199.149 180.022 199.593 180.008 200.111 179.929V181ZM195.05 174.469V173.44H200.111V174.469H195.05ZM204.707 181.21C203.965 181.21 203.316 181.047 202.761 180.72C202.21 180.389 201.781 179.929 201.473 179.341C201.165 178.748 201.011 178.058 201.011 177.269C201.011 176.443 201.163 175.729 201.466 175.127C201.769 174.52 202.192 174.054 202.733 173.727C203.279 173.396 203.918 173.23 204.651 173.23C205.412 173.23 206.058 173.405 206.59 173.755C207.127 174.105 207.528 174.604 207.794 175.253C208.065 175.902 208.181 176.674 208.144 177.57H206.884V177.122C206.87 176.193 206.681 175.5 206.317 175.043C205.953 174.581 205.412 174.35 204.693 174.35C203.923 174.35 203.337 174.597 202.936 175.092C202.535 175.587 202.334 176.296 202.334 177.22C202.334 178.111 202.535 178.802 202.936 179.292C203.337 179.782 203.909 180.027 204.651 180.027C205.15 180.027 205.584 179.913 205.953 179.684C206.322 179.455 206.611 179.126 206.821 178.697L208.018 179.11C207.724 179.777 207.281 180.295 206.688 180.664C206.1 181.028 205.44 181.21 204.707 181.21ZM201.914 177.57V176.569H207.5V177.57H201.914ZM212.987 181.21C212.222 181.21 211.571 181.04 211.034 180.699C210.502 180.354 210.096 179.88 209.816 179.278C209.536 178.676 209.392 177.99 209.382 177.22C209.392 176.431 209.539 175.738 209.823 175.141C210.113 174.539 210.526 174.07 211.062 173.734C211.599 173.398 212.245 173.23 213.001 173.23C213.799 173.23 214.485 173.426 215.059 173.818C215.638 174.21 216.025 174.747 216.221 175.428L214.989 175.799C214.831 175.36 214.572 175.02 214.212 174.777C213.858 174.534 213.449 174.413 212.987 174.413C212.469 174.413 212.042 174.534 211.706 174.777C211.37 175.015 211.121 175.346 210.957 175.771C210.794 176.191 210.71 176.674 210.705 177.22C210.715 178.06 210.908 178.739 211.286 179.257C211.669 179.77 212.236 180.027 212.987 180.027C213.482 180.027 213.893 179.915 214.219 179.691C214.546 179.462 214.793 179.133 214.961 178.704L216.221 179.033C215.96 179.738 215.552 180.277 214.996 180.65C214.441 181.023 213.771 181.21 212.987 181.21ZM223.133 181V177.213C223.133 176.854 223.1 176.508 223.035 176.177C222.974 175.846 222.865 175.549 222.706 175.288C222.552 175.022 222.342 174.812 222.076 174.658C221.815 174.504 221.483 174.427 221.082 174.427C220.769 174.427 220.485 174.481 220.228 174.588C219.976 174.691 219.759 174.849 219.577 175.064C219.395 175.279 219.253 175.549 219.15 175.876C219.052 176.198 219.003 176.578 219.003 177.017L218.184 176.765C218.184 176.032 218.315 175.405 218.576 174.882C218.842 174.355 219.213 173.951 219.689 173.671C220.17 173.386 220.734 173.244 221.383 173.244C221.873 173.244 222.291 173.321 222.636 173.475C222.981 173.629 223.268 173.834 223.497 174.091C223.726 174.343 223.905 174.628 224.036 174.945C224.167 175.258 224.258 175.577 224.309 175.904C224.365 176.226 224.393 176.532 224.393 176.821V181H223.133ZM217.743 181V173.44H218.863V175.463H219.003V181H217.743ZM229.465 181.21C228.713 181.21 228.065 181.04 227.519 180.699C226.977 180.358 226.56 179.887 226.266 179.285C225.972 178.683 225.825 177.992 225.825 177.213C225.825 176.42 225.974 175.724 226.273 175.127C226.571 174.53 226.994 174.065 227.54 173.734C228.086 173.398 228.727 173.23 229.465 173.23C230.221 173.23 230.872 173.4 231.418 173.741C231.964 174.077 232.381 174.546 232.671 175.148C232.965 175.745 233.112 176.434 233.112 177.213C233.112 178.002 232.965 178.697 232.671 179.299C232.377 179.896 231.957 180.365 231.411 180.706C230.865 181.042 230.216 181.21 229.465 181.21ZM229.465 180.027C230.249 180.027 230.832 179.766 231.215 179.243C231.597 178.72 231.789 178.044 231.789 177.213C231.789 176.359 231.595 175.68 231.208 175.176C230.82 174.667 230.239 174.413 229.465 174.413C228.937 174.413 228.503 174.532 228.163 174.77C227.822 175.008 227.568 175.337 227.4 175.757C227.232 176.177 227.148 176.662 227.148 177.213C227.148 178.062 227.344 178.744 227.736 179.257C228.128 179.77 228.704 180.027 229.465 180.027ZM234.893 181V170.71H236.139V181H234.893ZM242.07 172.285H241.055L241.972 169.975H242.987L242.07 172.285ZM241.559 181.21C240.808 181.21 240.159 181.04 239.613 180.699C239.072 180.358 238.654 179.887 238.36 179.285C238.066 178.683 237.919 177.992 237.919 177.213C237.919 176.42 238.069 175.724 238.367 175.127C238.666 174.53 239.088 174.065 239.634 173.734C240.18 173.398 240.822 173.23 241.559 173.23C242.315 173.23 242.966 173.4 243.512 173.741C244.058 174.077 244.476 174.546 244.765 175.148C245.059 175.745 245.206 176.434 245.206 177.213C245.206 178.002 245.059 178.697 244.765 179.299C244.471 179.896 244.051 180.365 243.505 180.706C242.959 181.042 242.311 181.21 241.559 181.21ZM241.559 180.027C242.343 180.027 242.927 179.766 243.309 179.243C243.692 178.72 243.883 178.044 243.883 177.213C243.883 176.359 243.69 175.68 243.302 175.176C242.915 174.667 242.334 174.413 241.559 174.413C241.032 174.413 240.598 174.532 240.257 174.77C239.917 175.008 239.662 175.337 239.494 175.757C239.326 176.177 239.242 176.662 239.242 177.213C239.242 178.062 239.438 178.744 239.83 179.257C240.222 179.77 240.799 180.027 241.559 180.027ZM249.906 184.57C249.51 184.57 249.122 184.509 248.744 184.388C248.366 184.267 248.019 184.082 247.701 183.835C247.389 183.592 247.127 183.284 246.917 182.911L248.058 182.309C248.245 182.678 248.509 182.946 248.849 183.114C249.195 183.282 249.549 183.366 249.913 183.366C250.394 183.366 250.793 183.277 251.11 183.1C251.428 182.927 251.661 182.668 251.81 182.323C251.964 181.978 252.039 181.548 252.034 181.035V178.97H252.181V173.44H253.287V181.049C253.287 181.254 253.28 181.453 253.266 181.644C253.257 181.835 253.234 182.024 253.196 182.211C253.098 182.748 252.905 183.189 252.615 183.534C252.326 183.884 251.953 184.143 251.495 184.311C251.038 184.484 250.508 184.57 249.906 184.57ZM249.815 181.21C249.111 181.21 248.506 181.035 248.002 180.685C247.498 180.33 247.109 179.852 246.833 179.25C246.563 178.648 246.427 177.969 246.427 177.213C246.427 176.457 246.563 175.778 246.833 175.176C247.109 174.574 247.498 174.1 248.002 173.755C248.506 173.405 249.108 173.23 249.808 173.23C250.522 173.23 251.122 173.403 251.607 173.748C252.093 174.093 252.459 174.567 252.706 175.169C252.958 175.771 253.084 176.452 253.084 177.213C253.084 177.964 252.958 178.643 252.706 179.25C252.459 179.852 252.093 180.33 251.607 180.685C251.122 181.035 250.525 181.21 249.815 181.21ZM249.969 180.069C250.478 180.069 250.896 179.948 251.222 179.705C251.549 179.458 251.789 179.119 251.943 178.69C252.102 178.256 252.181 177.764 252.181 177.213C252.181 176.653 252.102 176.161 251.943 175.736C251.789 175.307 251.551 174.973 251.229 174.735C250.907 174.492 250.499 174.371 250.004 174.371C249.491 174.371 249.066 174.497 248.73 174.749C248.399 175.001 248.152 175.342 247.988 175.771C247.83 176.2 247.75 176.681 247.75 177.213C247.75 177.75 247.832 178.235 247.995 178.669C248.159 179.098 248.404 179.439 248.73 179.691C249.062 179.943 249.475 180.069 249.969 180.069ZM255.482 172.103V170.815H256.728V172.103H255.482ZM255.482 181V173.44H256.728V181H255.482ZM262.113 181.21C261.348 181.21 260.697 181.04 260.16 180.699C259.628 180.354 259.222 179.88 258.942 179.278C258.662 178.676 258.518 177.99 258.508 177.22C258.518 176.431 258.665 175.738 258.949 175.141C259.239 174.539 259.652 174.07 260.188 173.734C260.725 173.398 261.371 173.23 262.127 173.23C262.925 173.23 263.611 173.426 264.185 173.818C264.764 174.21 265.151 174.747 265.347 175.428L264.115 175.799C263.957 175.36 263.698 175.02 263.338 174.777C262.984 174.534 262.575 174.413 262.113 174.413C261.595 174.413 261.168 174.534 260.832 174.777C260.496 175.015 260.247 175.346 260.083 175.771C259.92 176.191 259.836 176.674 259.831 177.22C259.841 178.06 260.034 178.739 260.412 179.257C260.795 179.77 261.362 180.027 262.113 180.027C262.608 180.027 263.019 179.915 263.345 179.691C263.672 179.462 263.919 179.133 264.087 178.704L265.347 179.033C265.086 179.738 264.678 180.277 264.122 180.65C263.567 181.023 262.897 181.21 262.113 181.21ZM268.957 181.21C268.392 181.21 267.918 181.107 267.536 180.902C267.158 180.692 266.871 180.417 266.675 180.076C266.483 179.735 266.388 179.362 266.388 178.956C266.388 178.559 266.462 178.216 266.612 177.927C266.766 177.633 266.98 177.39 267.256 177.199C267.531 177.003 267.86 176.849 268.243 176.737C268.602 176.639 269.003 176.555 269.447 176.485C269.895 176.41 270.347 176.343 270.805 176.282C271.262 176.221 271.689 176.163 272.086 176.107L271.638 176.366C271.652 175.694 271.516 175.197 271.232 174.875C270.952 174.553 270.466 174.392 269.776 174.392C269.318 174.392 268.917 174.497 268.572 174.707C268.231 174.912 267.991 175.248 267.851 175.715L266.668 175.358C266.85 174.695 267.202 174.175 267.725 173.797C268.247 173.419 268.936 173.23 269.79 173.23C270.476 173.23 271.064 173.354 271.554 173.601C272.048 173.844 272.403 174.212 272.618 174.707C272.725 174.94 272.793 175.195 272.821 175.47C272.849 175.741 272.863 176.025 272.863 176.324V181H271.757V179.187L272.016 179.355C271.731 179.966 271.332 180.428 270.819 180.741C270.31 181.054 269.689 181.21 268.957 181.21ZM269.146 180.167C269.594 180.167 269.981 180.088 270.308 179.929C270.639 179.766 270.905 179.553 271.106 179.292C271.306 179.026 271.437 178.737 271.498 178.424C271.568 178.191 271.605 177.932 271.61 177.647C271.619 177.358 271.624 177.136 271.624 176.982L272.058 177.171C271.652 177.227 271.253 177.281 270.861 177.332C270.469 177.383 270.098 177.439 269.748 177.5C269.398 177.556 269.083 177.624 268.803 177.703C268.597 177.768 268.404 177.852 268.222 177.955C268.044 178.058 267.9 178.191 267.788 178.354C267.68 178.513 267.627 178.711 267.627 178.949C267.627 179.154 267.678 179.35 267.781 179.537C267.888 179.724 268.051 179.875 268.271 179.992C268.495 180.109 268.786 180.167 269.146 180.167ZM275.007 181V179.628H276.379V181H275.007Z" fill="white" fill-opacity="0.9"/>
</svg>
